<svg xmlns="http://www.w3.org/2000/svg" width="400" height="400"><path d="M0 0h400v400H0z" style="fill:#d5e1e6;fill-opacity:1;stroke:none"/><path d="m225.39 55.469 1.25.605c12.255 6.2 20.505 17.899 24.923 30.645l.261.742c1.465 4.187 2.649 8.379 3.66 12.695 1.328 5.633 2.868 11.14 4.746 16.617l.301.88.301.87.582 1.704.285.828c.887 2.593 1.672 5.21 2.41 7.851l.325 1.13c2.625 9.585 1.96 18.995-.372 28.558q-.26 1.113-.523 2.226a525 525 0 0 1-.988 4.121c-4.477 18.59-1.387 38.664 8.433 55.149 1.118 1.793 2.375 3.469 3.684 5.125.621.82 1.086 1.582 1.504 2.52-5.715 2.417-12.262 2.535-18.36 3.124 5.333 2.286 10.676 4.524 16.063 6.664 5.086 2.024 10.164 4.059 15.188 6.227l1.148.492c8.184 3.54 8.184 3.54 10.18 6.93.25.418.504.836.761 1.266 4.73 8.425 6.555 18.496 8.567 27.859l.203.941a669 669 0 0 1 3.476 17.32q.424 2.217.852 4.426c.184.95.363 1.903.547 2.852l.254 1.305q.315 1.694.574 3.406l.14.883c.145 1.632-.214 2.52-1.226 3.734q-.714.739-1.453 1.461l-.762.777c-1.465 1.485-2.969 2.91-4.574 4.243-.848.734-1.621 1.523-2.402 2.332-1.567 1.578-3.211 2.992-4.95 4.375q-1.204.965-2.386 1.96c-7.274 6.09-15.547 11.133-23.793 15.782l-.856.484c-7.027 3.961-14.52 7.113-22.136 9.746-.72.274-1.426.578-2.125.89-1.399.579-2.747.985-4.211 1.356l-.77.196c-.809.207-1.613.406-2.422.609l-2.394.605-1.567.399q-2.212.558-4.402 1.191c-2.375.653-4.777 1.008-7.211 1.344l-1.277.191c-8.743 1.239-17.473 1.465-26.29 1.426-1.124-.008-2.245-.004-3.37-.004q-1.639-.001-3.278-.007-1.146.001-2.293-.004l-1.398-.008-1.223-.004a11 11 0 0 1-2.621-.442 45 45 0 0 0-1.773-.14c-5.387-.367-10.563-1.172-15.832-2.34a212 212 0 0 0-3.133-.664c-4.438-.95-8.723-2.309-13.028-3.738l-.863-.29c-.816-.273-1.637-.546-2.453-.827l-1.441-.489c-1.274-.48-2.457-1.043-3.665-1.668a89 89 0 0 0-2.222-.828c-6.758-2.582-13.031-6.07-19.262-9.719l-.969-.566c-6.043-3.54-11.738-7.516-17.023-12.113a122 122 0 0 0-3.297-2.727c-3.894-3.18-7.473-6.683-11.035-10.226l-.945-.942-.88-.883-.788-.789c-1.004-1.086-1.079-1.875-1.059-3.332.117-1.71.45-3.386.758-5.066l.222-1.238c.157-.868.317-1.73.473-2.598q.353-1.935.7-3.875 1.418-7.847 3.163-15.629.434-1.957.86-3.918c2.195-9.969 2.195-9.969 3.258-13.832l.28-1.031c3.876-13.957 3.876-13.957 8.704-17.328a67 67 0 0 1 3.043-1.532l.96-.453c4.946-2.285 10.04-4.23 15.106-6.23q3.71-1.466 7.418-2.938l.805-.32a613 613 0 0 0 15.637-6.496c-3.528-.469-7.051-.867-10.594-1.172a133 133 0 0 1-9.719-1.172c.52-1.117 1.117-2.043 1.883-3.008 1.23-1.617 2.211-3.297 3.148-5.097l.5-.97c3.903-7.644 6.231-15.421 7.653-23.858l.25-1.48c.87-5.427 1.097-10.767 1.094-16.247v-.938c-.008-5.375-.13-10.68-1.446-15.921-.234-1.024-.367-2.047-.508-3.086-.402-2.735-1.05-5.391-1.73-8.067-3.516-14.125 1.313-28.336 5.84-41.656 1.125-3.312 2.164-6.629 3.043-10.02l.273-1.05c.426-1.703.79-3.422 1.078-5.153.352-1.984.895-3.824 1.602-5.71l.36-.958c1.945-5.015 4.581-9.433 8.21-13.421l.692-.774c2.777-2.945 7.558-6.832 11.77-7.082l.823.004.899.004.93.012.94.003q1.153.007 2.306.02l.34-.918c.57-1.34 1.316-2.004 2.394-2.988l.59-.61c12.14-11.812 32.816-9.496 46.676-2.515" style="stroke:none;fill-rule:nonzero;fill:#182f3c;fill-opacity:1"/><path d="m232.813 37.89 1.125.204c10.89 2.015 21.562 6.093 31.593 10.722q.885.406 1.77.805c7.851 3.55 15.683 7.75 22.508 13.05 1.02.763 2.078 1.462 3.136 2.173 4.977 3.398 9.496 7.414 13.875 11.547a130 130 0 0 0 1.875 1.71c1.868 1.684 3.688 3.352 5.282 5.305.921 1.121 1.984 2.11 3.035 3.11 1.722 1.671 3.242 3.464 4.746 5.336q.848 1.06 1.726 2.101c11.926 14.223 21.61 31.188 27.707 48.727.352 1.011.715 2.027 1.082 3.035 3.657 10.297 5.895 21.113 7.372 31.922l.14 1.02c.832 6.484.856 13.034.86 19.562v1.261c-.004 7.524-.368 14.93-1.27 22.395l-.164 1.383c-2.238 18-8.469 35.613-16.633 51.742l-.527 1.063c-5.012 10.066-11.25 19.425-18.223 28.234l-.871 1.101a126 126 0 0 1-4.988 5.809l-.57.625q-.681.736-1.383 1.45h-.391l-.184-1.102a761 761 0 0 0-4.746-25.61l-.273-1.351c-.961-4.785-1.985-9.516-3.356-14.2a96 96 0 0 1-1.16-4.566c-1.336-5.445-2.992-11.07-6.297-15.672l-.433-.617c-1.696-2.219-3.73-3.207-6.235-4.344l-1.293-.605c-5.066-2.332-10.242-4.39-15.43-6.445q-2.864-1.142-5.734-2.29l-1.37-.55a688 688 0 0 1-8.255-3.344l-.933-.379c-2.067-.867-2.067-.867-2.504-1.738l.922-.082c6.031-.555 11.937-1.207 17.828-2.653l-.719-.879c-7.86-9.796-12.312-21.457-14.363-33.77a93 93 0 0 0-.422-2.273c-1.766-9.937-.012-19.71 2.305-29.363.48-2.015.945-4.035 1.406-6.054l.246-1.051c1.664-7.262 1.832-15.489-.172-22.703l-.293-1.07a267 267 0 0 0-3.867-12.614l-1.09-3.285-.273-.832c-1.457-4.414-2.664-8.86-3.754-13.375-1.223-5.067-2.567-10.028-4.395-14.918l-.465-1.274c-5.168-13.218-14.23-23.793-27.27-29.585l-.745-.333c-10.309-4.558-22.946-5.953-33.617-1.851-3.809 1.55-7.414 3.492-10.383 6.383-.567.488-.567.488-1.348.488l-.344.684-1.218 2.441-1.317.031c-7.207.242-11.98 2.996-17.043 8.172a45.3 45.3 0 0 0-10.355 21.965c-1 5.7-2.735 11.191-4.66 16.633a154 154 0 0 0-4.907 16.87l-.226.954c-1.442 6.223-1.633 13.125-.164 19.36q.491 2.111.976 4.222l.266 1.137a73 73 0 0 1 1.336 7.765c.203 1.743.48 3.465.758 5.196.375 2.504.632 4.925.636 7.457l.004.87q.005 1.386.004 2.77v.961c-.012 4.637-.148 9.172-.855 13.762l-.153 1.086c-1.726 12.226-5.582 25.785-13.91 35.242l.91.059c4.246.281 8.477.707 12.715 1.136l2.18.223q2.647.265 5.289.535c-1.008 1.008-2.156 1.414-3.453 1.946l-.828.347-2.727 1.125-1.906.793c-4.3 1.774-8.613 3.516-12.938 5.238-6.101 2.43-6.101 2.43-12.187 4.903q-1.044.425-2.094.851c-6.402 2.637-10.344 5.149-13.133 11.66-2.437 6.176-3.914 12.782-5.421 19.231l-.313 1.316c-2.29 9.809-4.008 19.723-5.75 29.641q-.434 2.49-.879 4.98l-.48 2.735-.391-.781h-.781a33 33 0 0 1-1.54-1.832 143 143 0 0 0-3.538-4.286c-2.52-2.918-4.809-5.968-7.032-9.117l-.609-.86c-6.809-9.66-12.703-19.91-17.36-30.78l-.527-1.2q-.739-1.735-1.425-3.488l-.368-.918c-7.754-19.637-11.437-39.898-11.449-60.973v-1.386c.02-21.336 3.734-42.45 12.207-62.113l.36-.852c1.68-3.965 3.53-7.82 5.5-11.649l.449-.882c2.918-5.72 6.054-11.32 9.812-16.535.805-1.125 1.582-2.266 2.36-3.407 3.086-4.472 6.492-8.656 10.035-12.77l.781-.917a69 69 0 0 1 4.047-4.285c.625-.641 1.183-1.301 1.738-2l.856-1h.78v-.782h.782v-.78c.531-.54.531-.54 1.293-1.173q2.003-1.704 3.93-3.492a90 90 0 0 1 5.023-4.25q1.207-.949 2.395-1.922c9.414-7.676 19.77-14 30.719-19.242l.953-.46c5.672-2.708 11.453-4.946 17.406-6.962l1-.344c8.719-2.941 17.652-4.882 26.734-6.297l1.223-.195c17.379-2.707 35.504-1.054 52.684 2.149" style="stroke:none;fill-rule:nonzero;fill:#9fc0c9;fill-opacity:1"/><path d="M0 0h185.547v.39l-.942.032c-20.53.965-40.761 6.418-59.605 14.422l-.969.41c-3.566 1.523-7.031 3.164-10.43 5.035-1.218.672-2.464 1.285-3.714 1.898-2.461 1.227-4.824 2.586-7.176 4.008l-1.285.774a167 167 0 0 0-22.91 16.781l-.735.633c-4.61 4.012-8.992 8.273-13.328 12.574l-1.016 1.004c-2.011 2.004-3.843 4.09-5.62 6.305-.958 1.18-1.965 2.28-3.008 3.386a54 54 0 0 0-4.418 5.395q-.816 1.089-1.637 2.172c-.805 1.078-1.61 2.152-2.414 3.23-2.02 2.707-4 5.418-5.778 8.293a88 88 0 0 1-1.62 2.492C23.34 112.48 13.874 139.762 8.983 167.188l-.171.94a110 110 0 0 0-1 6.872l-.165 1.367c-4.066 36.153 1.598 73.89 18.11 111.02.39.851.781 1.699 1.164 2.554 4.238 9.309 9.387 18.48 15.266 26.856l.89 1.277c3.563 5.047 7.25 10.004 11.219 14.738l.965 1.172c3.504 4.227 7.246 8.246 11.144 12.11.25.258.504.511.762.773l.68.692.687.703c.59.605.59.605 1.387.957V350l.707.316c.875.473 1.379.934 2.05 1.66 1.493 1.54 3.122 2.864 4.794 4.204q1.27 1.043 2.484 2.144c6.36 5.602 13.684 10.262 20.895 14.676q1.02.628 2.035 1.262c4.84 3.011 9.691 5.703 14.855 8.101 1.504.7 2.977 1.442 4.45 2.207 6.285 3.157 12.91 5.496 19.605 7.618l1.34.433a190 190 0 0 0 19.363 5.035l.84.172c2.95.598 5.863 1.117 8.87 1.27.837.12.837.12 2.009.902H0Zm0 0" style="stroke:none;fill-rule:nonzero;fill:#edeeec;fill-opacity:1"/><path d="M217.578 0H400v400H226.563v-.39l1.328-.16c9.285-1.192 18.597-3.048 27.539-5.837q1.17-.362 2.347-.707c1.899-.562 3.703-1.172 5.52-1.965 1.48-.613 3.008-1.097 4.527-1.609 2.863-.992 5.625-2.066 8.352-3.406a253 253 0 0 1 2.933-1.399l2.387-1.129 1.129-.535c2.586-1.234 5.105-2.566 7.61-3.957l1.527-.832c5.683-3.137 11.172-6.574 16.414-10.406a130 130 0 0 1 3.199-2.238c1.66-1.157 3.203-2.418 4.746-3.727a100 100 0 0 1 3.828-3.074c3.031-2.328 5.813-4.867 8.578-7.508q1.209-1.144 2.434-2.27l.84-.78c.523-.485 1.054-.973 1.582-1.462a47 47 0 0 0 4.328-4.617l.57-.586h.781l.313-.703c.484-.883.957-1.402 1.688-2.078 1.41-1.367 2.613-2.84 3.82-4.383a176 176 0 0 1 2.555-3.14c1.835-2.243 3.578-4.547 5.296-6.883l.86-1.168c1.32-1.801 2.594-3.613 3.828-5.473q.546-.808 1.094-1.617c1.906-2.816 3.773-5.598 5.336-8.621.601-1.09 1.257-2.117 1.937-3.156 2.516-3.88 4.45-7.98 6.395-12.168.593-1.254 1.226-2.48 1.863-3.711 4.851-9.668 8.465-20.121 11.5-30.493l.312-1.054c5.336-18.274 7.743-36.977 8.282-55.977l.027-.886c.25-8.977-.578-18.09-1.836-26.97-.137-1-.266-1.995-.383-2.995-2.43-19.332-8.465-38.203-16.558-55.868l-.403-.886c-8.21-18.012-19.34-34.672-32.41-49.504l-.887-1.008c-1.902-2.14-3.894-4.176-5.93-6.187a41 41 0 0 1-2.316-2.547c-1.77-2.07-3.82-3.852-5.84-5.68a189 189 0 0 1-1.832-1.7c-2.648-2.484-5.418-4.76-8.3-6.968-.649-.5-1.29-1-1.93-1.508-5.195-4.074-10.688-7.687-16.324-11.12l-.739-.458c-8.96-5.516-18.421-10.055-28.168-13.996l-.945-.383C252.891 5.516 235.227 1.828 217.578.391Zm0 0" style="stroke:none;fill-rule:nonzero;fill:#ededeb;fill-opacity:1"/><path d="M185.156 82.813q.686.659 1.344 1.343c2.902 2.903 6.2 4.465 10.082 5.7 2.188.949 3.727 2.886 5.348 4.578 2.062 2.129 4.117 4.226 6.37 6.152.93.797 1.817 1.633 2.712 2.465 2.863 2.61 5.957 4.898 9.058 7.207l.871.648q.852.634 1.704 1.262.991.743 1.964 1.504v.39q-.357.06-.726.126-1.665.287-3.328.582l-1.14.195c-4.415.652-4.415.652-8.282 2.637-.567 1.109-.785 1.96-1.012 3.171l-.207 1.07-.148.813 1.476-.43a889 889 0 0 1 5.516-1.574q1.205-.34 2.406-.68c10.941-3.105 10.941-3.105 17.125.34q.942.533 1.879 1.067c1.934 1.07 3.957 1.937 5.973 2.84l.39 8.984h.781l.305-.84c.508-1.191 1.121-2.218 1.82-3.308l.708-1.118c.578-.832 1.07-1.519 1.855-2.156 1.32-.226 2.254-.246 3.465.375 2.16 1.606 3.031 3.68 3.566 6.266.383 3.715.028 6.785-1.562 10.156l-.559 1.211c-.836 1.746-1.676 3.402-2.86 4.941-.788 1.141-1.01 1.602-1.269 2.883-.246 1.106-.488 1.676-1.097 2.684-1.996 1.25-4.036 1.058-6.325.781-.937-.297-1.527-.613-2.343-1.172l-.118.676c-2.039 11.05-7.617 21.063-15.507 29.012l-.817.523c-.816.582-.816.582-.941 1.477v.972l-.012 1.11.012 1.203v1.25q0 1.324.012 2.64c.011 1.32.007 2.637.003 3.958.008 5.226.399 10.238 1.352 15.382l1.395.399.832.234c.57.164 1.14.32 1.71.477 1.875.562 3.012 1.222 4.266 2.797 3.242 6.082 1.711 14.359.234 20.722l-1.183 5.157c-1.828 7.996-3.805 15.89-6.137 23.753-.523 1.778-1.027 3.563-1.531 5.348a676 676 0 0 1-2.934 9.957 993 993 0 0 0-1.535 5.156l-.234.797a390 390 0 0 0-1.328 4.633c-.887 3.152-1.766 6.274-2.934 9.336-.695 1.945-1.246 3.934-1.816 5.918a219 219 0 0 1-1.059 3.55c-2.39 7.782-4.43 15.665-6.383 23.563a549 549 0 0 1-1.68 6.633l-.203.793c-.277 1.063-.55 2.121-.828 3.18-.918 3.531-1.793 7.066-2.562 10.636-.309 1.102-.309 1.102-1.09 1.883q-.445-1.364-.879-2.734l-.242-.746c-1.445-4.555-2.453-9.25-3.543-13.899-1.555-6.66-3.164-13.265-5.164-19.808-.492-1.637-.938-3.285-1.39-4.934-.938-3.422-1.907-6.793-3.16-10.113a74 74 0 0 1-1.196-3.617l-.41-1.344-.422-1.399-.418-1.375c-1.77-5.859-3.512-11.722-5.176-17.613q-.386-1.348-.777-2.695c-2.875-9.879-5.602-19.832-7.895-29.863a95 95 0 0 0-.578-2.313c-5.695-21.75-5.695-21.75-1.562-28.953 1.933-2.508 5.25-2.844 8.203-3.516.98-5.855 1.332-11.683 1.402-17.613q.013-1.157.043-2.312c.328-4.797.328-4.797-1.55-8.989-.731-.64-.731-.64-1.458-1.164l-.914-.98-.793-.852c-3.098-3.46-5.43-7.215-7.594-11.3l-.539-1.016c-1.668-3.227-2.851-6.586-3.93-10.047l-.398-1.254c-.285-1.113-.285-1.113-.285-2.676l-.793.563c-1.41.742-2.527.875-4.113 1l-1.54.148c-1.367-.148-1.367-.148-2.312-1.023-.574-1-.8-1.567-.91-2.688-.3-1.633-.91-2.582-1.93-3.883-3.984-5.125-5.582-11.132-4.808-17.554.742-2.09 1.672-3.457 3.515-4.688 1.075-.219 1.075-.219 2.344 0 2.473 1.754 4.152 4.582 5.86 7.031l.078-.707c1.93-17.343 8.984-33.96 22.828-45.167 5.289-4.126 5.289-4.126 7.562-4.126" style="stroke:none;fill-rule:nonzero;fill:#faceaf;fill-opacity:1"/><path d="m225.39 55.469 1.25.605c12.255 6.2 20.505 17.899 24.923 30.645l.261.742c1.465 4.187 2.649 8.379 3.66 12.695 1.328 5.633 2.868 11.14 4.746 16.617l.301.88.301.87.582 1.704.285.828c.887 2.593 1.672 5.21 2.41 7.851l.325 1.13c2.625 9.585 1.96 18.995-.372 28.558q-.26 1.113-.523 2.226a525 525 0 0 1-.988 4.121c-4.477 18.59-1.387 38.664 8.433 55.149 1.118 1.793 2.375 3.469 3.684 5.125.621.82 1.086 1.582 1.504 2.52-1.899 1.042-3.422.706-5.469.39l-1.219-.148c-3.73-.489-6.789-1.633-10.109-3.368l-2.344-1.172v-.78l-1.562-.391v-.782h-.781v-.78l-.66-.27c-3.544-2.012-5.489-6.325-7.153-9.887l-.367-.742c-1.196-2.512-1.871-5.067-2.465-7.778l-.313-1.425c-1.035-5.157-.996-10.204-.761-15.446h.781l.121-1.195c.211-1.664.512-3.313.832-4.957l.29-1.508c.265-1.094.538-1.926 1.1-2.887h.782l.316-1.023c.454-1.29 1.004-2.457 1.637-3.664h.781l.391-1.563h.781l.293-1.074c.524-1.363 1.02-1.828 2.051-2.832a58 58 0 0 0 1.504-2.496l.45-.629h.78l.293-.781q.556-1.33 1.223-2.613c2.266-4.504 3.32-8.575 3.293-13.621l-.004-1.247c-.066-4.964-.383-11.578-4.023-15.332-1.153-.77-1.797-.933-3.125-1.171l-.782-.391c-1.28-.328-1.28-.328-2.734 0-2.074 1.906-3.414 4.55-4.687 7.031h-.782l-.781-8.984-1.879-.735a39 39 0 0 1-4.605-2.218c-4.13-2.336-6.907-3.739-11.688-2.57-.914.25-1.816.519-2.719.808-1.32.402-2.625.7-3.972.988-1.86.426-3.688.977-5.52 1.508l-.902.258-.805.23c-.722.168-.722.168-1.894.168.011-.601.039-1.203.074-1.804l.039-1.02c.379-1.48 1.05-2.48 2.23-3.426 1.149-.523 2.313-.804 3.54-1.074l.992-.238a77 77 0 0 1 7.578-1.422l-1.176-.875c-5.055-3.77-10.043-7.527-14.64-11.856a187 187 0 0 0-1.833-1.683l-.632-.578q-.641-.585-1.282-1.164a47 47 0 0 1-3.152-3.157c-2.664-2.918-4.879-4.359-8.633-5.562-2.082-.734-3.668-1.871-5.371-3.25l-.758-.578a28 28 0 0 1-1.586-1.375v-.781c-12.918 5.687-21.219 18.722-26.172 31.386-2.351 6.246-3.527 12.742-3.906 19.395-1.539-1.457-2.691-3.094-3.906-4.82-1.395-1.938-1.395-1.938-3.492-2.82-1.614.296-2.13.901-3.149 2.171-1.941 3.125-1.734 7.48-.992 11.004 1.043 3.61 3.371 8.172 6.07 10.871.192.867.352 1.734.508 2.61.332 1.1.582 1.69 1.446 2.468 1.367.133 1.367.133 2.878-.05l1.547-.126c1.274-.191 2.215-.496 3.387-.996l.203.762c1.332 4.969 2.727 9.668 5.262 14.16.394.711.785 1.426 1.164 2.149 2.336 4.332 5.406 7.886 8.75 11.457 1.973 2.109 2.32 3.418 2.316 6.254l.008 1.07q.004 1.729-.004 3.453v1.18c-.008 5.984-.304 11.804-1.293 17.718-1.719.66-3.386 1.266-5.176 1.707-1.214.368-1.824.61-2.808 1.442-1.563 2.941-2.008 5.957-2 9.254l-.004 1.195c.102 4.945 1.238 9.691 2.312 14.492.305 1.446.5 2.867.645 4.332l-1.172-.39-1.172 2.734h-.781l-.145.871c-.238 1.043-.554 1.809-1.054 2.746l-.496.93-.528.969-.535 1.004c-.351.656-.707 1.312-1.058 1.968a202 202 0 0 0-1.192 2.235c-.93 1.742-1.89 3.367-3.086 4.941-.883 1.309-1.55 2.742-2.246 4.156-.597.883-.597.883-1.324 1.282-1.238-.012-1.836-.536-2.836-1.254q-.619-.428-1.25-.871l-.691-.489c-1.399-.976-2.82-1.918-4.239-2.863l-.906-.61c-1.383-.921-2.766-1.827-4.2-2.675l-.714-.422q-.944-.55-1.895-1.09c-.902-.672-.902-.672-1.253-1.484-.051-.965.246-1.496.742-2.313h.781l.27-.61c.437-.812.894-1.503 1.44-2.245.802-1.098 1.477-2.227 2.134-3.418.547-.914 1.152-1.77 1.773-2.637 2.082-2.945 3.817-5.988 5.403-9.223.898-1.816 1.851-3.609 2.8-5.402l.535-1.016q.635-1.2 1.27-2.402-1.343.474-2.684.953l-.773.274c-1.418.5-1.418.5-2.793 1.117-1.11-.067-2.2-.16-3.3-.277l-1.009-.098q-1.065-.11-2.125-.219a442 442 0 0 0-3.195-.324c-3.836-.39-7.652-.836-11.465-1.426.52-1.117 1.117-2.043 1.883-3.008 1.23-1.617 2.211-3.297 3.148-5.097l.504-.97c3.899-7.644 6.227-15.421 7.649-23.858l.25-1.48c.87-5.423 1.097-10.767 1.094-16.247v-.938c-.008-5.375-.13-10.68-1.446-15.921-.234-1.024-.367-2.047-.508-3.086-.402-2.735-1.05-5.391-1.73-8.067-3.516-14.125 1.313-28.336 5.84-41.656 1.125-3.312 2.164-6.629 3.043-10.02l.273-1.05c.426-1.703.79-3.422 1.078-5.153.352-1.984.895-3.824 1.602-5.71l.36-.958c1.945-5.015 4.581-9.433 8.21-13.421l.692-.774c2.777-2.945 7.558-6.832 11.77-7.082l.823.004.899.004.93.012.94.003q1.153.007 2.306.02l.34-.918c.57-1.34 1.316-2.004 2.394-2.988l.59-.61c12.14-11.812 32.816-9.496 46.676-2.515" style="stroke:none;fill-rule:nonzero;fill:#413938;fill-opacity:1"/><path d="m225.39 55.469 1.25.605c12.255 6.2 20.505 17.899 24.923 30.645l.261.742c1.465 4.187 2.649 8.379 3.66 12.695 1.328 5.633 2.868 11.14 4.746 16.617l.301.88.301.87.582 1.704.285.828c.887 2.593 1.672 5.21 2.41 7.851l.325 1.13c2.625 9.585 1.96 18.995-.372 28.558q-.26 1.113-.523 2.226a525 525 0 0 1-.988 4.121c-4.477 18.59-1.387 38.664 8.433 55.149 1.118 1.793 2.375 3.469 3.684 5.125.621.82 1.086 1.582 1.504 2.52-1.899 1.042-3.422.706-5.469.39l-1.219-.148c-3.73-.489-6.789-1.633-10.109-3.368l-2.344-1.172v-.78l-1.562-.391v-.782h-.781v-.78l-.66-.27c-3.544-2.012-5.489-6.325-7.153-9.887l-.367-.742c-1.196-2.512-1.871-5.067-2.465-7.778l-.313-1.425c-1.035-5.157-.996-10.204-.761-15.446h.781l.121-1.195c.211-1.664.512-3.313.832-4.957l.29-1.508c.265-1.094.538-1.926 1.1-2.887h.782l.316-1.023c.454-1.29 1.004-2.457 1.637-3.664h.781l.391-1.563h.781l.293-1.074c.524-1.363 1.02-1.828 2.051-2.832a58 58 0 0 0 1.504-2.496l.45-.629h.78l.293-.781q.556-1.33 1.223-2.613c2.266-4.504 3.32-8.575 3.293-13.621l-.004-1.247c-.066-4.964-.383-11.578-4.023-15.332-1.153-.77-1.797-.933-3.125-1.171l-.782-.391c-1.28-.328-1.28-.328-2.734 0-2.074 1.906-3.414 4.55-4.687 7.031h-.782l-.781-8.984-1.879-.735a39 39 0 0 1-4.605-2.218c-4.13-2.336-6.907-3.739-11.688-2.57-.914.25-1.816.519-2.719.808-1.32.402-2.625.7-3.972.988-1.86.426-3.688.977-5.52 1.508l-.902.258-.805.23c-.722.168-.722.168-1.894.168.011-.601.039-1.203.074-1.804l.039-1.02c.379-1.48 1.05-2.48 2.23-3.426 1.149-.523 2.313-.804 3.54-1.074l.992-.238a77 77 0 0 1 7.578-1.422l-1.176-.875c-5.055-3.77-10.043-7.527-14.64-11.856a187 187 0 0 0-1.833-1.683c-3.062-2.79-6.004-5.684-8.914-8.633l-.781-.781c-.371-.555-.738-1.114-1.105-1.668-.653-.965-1.356-1.883-2.063-2.805-5.441-7.129-9.824-14.66-13.75-22.723l-.465-.933-.41-.867-.363-.75c-.254-.903-.13-1.41.187-2.285 11.317-12.188 33.406-8.93 46.485-2.344" style="stroke:none;fill-rule:nonzero;fill:#473e3d;fill-opacity:1"/><path d="m175.781 212.5.188 1.188c1.941 11.66 8.699 20.925 16.508 29.484q.903.991 1.789 2c1.68 1.902 3.367 3.621 5.343 5.219 1.48-.508 2.403-1.086 3.5-2.2l.852-.859.875-.898.86-.868c6.656-6.746 12.624-14.257 16.57-22.91l.386-.816c.875-2.055 1.192-4.27 1.567-6.461.351-2.059.351-2.059.781-2.488 2.633-.024 5.328.234 7.422 1.953 2.254 3.035 2.476 6.812 2.441 10.449l-.008 1.156c-.046 3.563-.613 6.828-1.417 10.29l-1.184 5.156c-1.828 7.996-3.805 15.89-6.137 23.753-.523 1.778-1.027 3.563-1.531 5.348a632 632 0 0 1-2.934 9.957 993 993 0 0 0-1.535 5.156l-.234.797a390 390 0 0 0-1.328 4.633c-.887 3.152-1.766 6.274-2.934 9.336-.695 1.945-1.246 3.934-1.816 5.918a219 219 0 0 1-1.059 3.55c-2.39 7.782-4.43 15.665-6.383 23.563a549 549 0 0 1-1.68 6.633q-.1.391-.203.793c-.277 1.063-.55 2.121-.828 3.18-.918 3.531-1.793 7.066-2.562 10.636-.309 1.102-.309 1.102-1.09 1.883q-.445-1.364-.879-2.734l-.242-.746c-1.445-4.555-2.453-9.25-3.543-13.899-1.555-6.66-3.164-13.265-5.164-19.808-.492-1.637-.938-3.285-1.39-4.934-.938-3.422-1.907-6.793-3.16-10.113a74 74 0 0 1-1.196-3.617l-.41-1.344-.422-1.399-.418-1.375c-1.77-5.859-3.512-11.722-5.176-17.613q-.386-1.348-.777-2.695c-2.875-9.879-5.602-19.832-7.895-29.863a95 95 0 0 0-.578-2.313c-5.707-21.789-5.707-21.789-1.562-28.953 2.058-2.523 5.433-3.125 8.593-3.125" style="stroke:none;fill-rule:nonzero;fill:#f8fbfc;fill-opacity:1"/><path d="M136.719 147.656c1.187 1.125 2.12 2.297 3.05 3.637a29 29 0 0 0 3.75 4.324c.825.84 1.458 1.77 2.118 2.742.492.711.492.711 1.386 1.528 4.262 4.367 7.325 10.676 9.618 16.285l.394.926c1.473 3.714 2.285 7.675 3.121 11.574l.227 1.023c2.062 10.157.937 24.383-3.742 33.743h.78v-.782l1.954-.39.39-1.172c1.692-1.172 1.692-1.172 2.735-1.172l.39-1.172c1.024-.484 2.055-.812 3.126-1.172.425 1.274.34 1.508 0 2.734-.657 6.848.605 13.254 2.093 19.887.301 1.446.496 2.867.641 4.332l-1.172-.39-1.172 2.734h-.781l-.145.871c-.238 1.047-.55 1.809-1.054 2.746l-.496.93-.528.969-.535 1.004c-.351.656-.707 1.312-1.058 1.968a202 202 0 0 0-1.192 2.235c-.93 1.742-1.89 3.367-3.086 4.941-.883 1.309-1.55 2.742-2.246 4.156-.597.883-.597.883-1.324 1.282-1.238-.012-1.836-.536-2.836-1.254q-.619-.428-1.25-.871l-.691-.489c-1.399-.976-2.82-1.918-4.239-2.863l-.906-.61c-1.383-.921-2.766-1.827-4.2-2.675l-.714-.422q-.944-.55-1.895-1.09c-.902-.672-.902-.672-1.253-1.484-.051-.965.246-1.496.742-2.313h.781l.27-.61c.437-.812.894-1.503 1.44-2.245.802-1.098 1.477-2.227 2.134-3.418.547-.914 1.152-1.77 1.773-2.637 2.082-2.945 3.817-5.988 5.403-9.223.898-1.816 1.851-3.609 2.8-5.402l.535-1.016q.635-1.2 1.27-2.402-1.343.474-2.684.953l-.773.274c-1.418.5-1.418.5-2.793 1.117-1.11-.067-2.2-.16-3.3-.277l-1.009-.098q-1.065-.11-2.125-.219a442 442 0 0 0-3.195-.324c-3.836-.39-7.652-.836-11.465-1.426.52-1.117 1.117-2.043 1.883-3.008 1.23-1.617 2.211-3.297 3.148-5.097l.504-.97c3.899-7.644 6.227-15.421 7.649-23.858l.25-1.48c.87-5.423 1.097-10.767 1.094-16.247v-.938c-.008-5.37-.13-10.671-1.442-15.91-.246-1.074-.402-2.152-.562-3.242-.422-2.871-.996-5.703-1.586-8.547" style="stroke:none;fill-rule:nonzero;fill:#473f3e;fill-opacity:1"/><path d="M147.266 89.844h.39l-.082 1.043c-.289 3.886-.387 7.754-.383 11.652v.926c.008 6.394.25 12.781 1.493 19.074.156.965.168 1.875.144 2.852l-1.27.488c-2.234.969-3.273 2.351-4.199 4.59-1.183 7.433 1.696 13.23 5.86 19.14l.39.391c.192.867.352 1.734.508 2.61.332 1.1.582 1.69 1.446 2.468 1.367.133 1.367.133 2.882-.047l1.547-.125c1.27-.195 2.211-.5 3.383-1l.203.762c1.332 4.969 2.727 9.668 5.262 14.16.394.711.785 1.426 1.164 2.149 2.336 4.332 5.406 7.886 8.75 11.457 1.973 2.109 2.32 3.418 2.316 6.254l.008 1.07q.004 1.729-.004 3.453v1.18c-.004 5.984-.304 11.804-1.293 17.718-1.719.66-3.386 1.266-5.176 1.711-1.69.496-2.515 1.008-3.417 2.586-.485 1.047-.485 1.047-.782 1.953l-.781-.39q-.989.569-1.953 1.172h-.781l-.735.734c-.793.793-1.398 1.129-2.39 1.61l-.61.632c-.562.54-.562.54-1.734.54v.78h-.781c1.172-4.296 1.172-4.296 1.445-5.246 3.023-10.687 3.773-22.25.898-33.035l-.468-1.875c-1.965-7.617-5.352-14.867-10.078-21.172l-.829-1.293c-.8-1.144-1.695-2.023-2.687-3.004-2.332-2.402-4.508-4.855-6.469-7.57l-.496-.672c-3.586-5.093-3.004-13.289-2.07-19.172 1.515-8.308 4.05-16.34 6.777-24.316 1.797-5.34 3.219-10.773 4.602-16.238" style="stroke:none;fill-rule:nonzero;fill:#252324;fill-opacity:1"/><path d="M222.656 185.938h.39l.013 1.14c.074 6.711.238 13.367 1.136 20.027l.2 1.5c.207 2.368.207 2.368 1.386 4.286l-.781.39a46 46 0 0 0-.512 2.832c-1.191 7.075-1.191 7.075-3.394 9.278l-.781-.391c-.04.277-.075.555-.114.844-.496 1.984-1.754 3.515-2.945 5.152-.438.613-.844 1.25-1.25 1.887-3.184 4.453-8.055 6.441-12.883 8.707-1.21.59-1.21.59-2.414 1.453-1.098.707-1.098.707-2.27.707l-.316-1.066c-3.246-10.727-7.644-20.77-12.984-30.618-.371-.738-.371-.738-.762-1.91l.715-.113c4.426-.711 8.5-1.445 12.566-3.402.633-.239 1.27-.477 1.903-.707 4.43-1.778 8.203-4.352 11.77-7.496l.983-.84c3.395-2.957 6.575-6.246 9.125-9.97l.438-.519h.781Zm0 0" style="stroke:none;fill-rule:nonzero;fill:#fbd0b0;fill-opacity:1"/><path d="m176.563 184.375.554.48.738.633.727.625c6.281 5.332 13.055 10.543 21.59 10.469l1.055.008c3.472-.008 6.398-.586 9.441-2.278l.758-.414c2.488-1.39 4.707-3.058 6.933-4.835q1.026-.798 2.051-1.586l1.465-1.149c0 3.504-5.54 7.867-7.918 10.313-5.125 5.086-11.152 8.824-17.984 11.07-1.352.422-1.352.422-2.211.894-.828.395-1.524.563-2.43.711l-.926.153-.953.148-.953.16c-1.414.227-2.687.38-4.125.38l.605 1.023c3.856 6.64 7.34 13.62 9.942 20.851l.437 1.207q.738 2.069 1.465 4.14l.485 1.36.441 1.282.402 1.152c.286 1.016.286 1.016.286 2.578l.769-.43a109 109 0 0 1 5.934-3.074c4.898-2.363 8.691-4.344 11.656-8.996l.46-.7c1.774-2.648 1.774-2.648 3.055-5.55h.782c-1.774 6.105-7.082 11.723-11.317 16.32a84 84 0 0 0-2.062 2.356c-1.309 1.496-2.684 2.926-4.078 4.347l-.66.688-.637.64-.567.579c-.722.554-1.261.742-2.164.851-2.507-1.683-4.554-4.152-6.535-6.414a97 97 0 0 0-1.808-1.992c-7.465-7.95-15.504-18.93-15.875-30.266.117-1.336.347-2.652.562-3.98 1.121-7.84.707-15.856.61-23.754" style="stroke:none;fill-rule:nonzero;fill:#ec835a;fill-opacity:1"/><path d="M165.625 217.578c.781 1.172.781 1.172.64 1.914l-.25.82c-.656 6.848.606 13.254 2.094 19.887.301 1.446.496 2.867.641 4.332l-1.172-.39-1.172 2.734h-.781l-.145.871c-.238 1.047-.55 1.809-1.054 2.746l-.496.93-.528.969-.535 1.004c-.351.656-.707 1.312-1.058 1.968a202 202 0 0 0-1.192 2.235c-.93 1.742-1.89 3.367-3.086 4.941-.883 1.309-1.55 2.742-2.246 4.156-.597.883-.597.883-1.324 1.282-1.238-.012-1.836-.536-2.836-1.254q-.619-.428-1.25-.871l-.691-.489c-1.399-.976-2.82-1.918-4.239-2.863l-.906-.61c-1.383-.921-2.766-1.827-4.2-2.675l-.714-.422q-.944-.55-1.895-1.09c-.902-.672-.902-.672-1.253-1.484-.051-.965.246-1.496.742-2.313h.781l.27-.61c.437-.812.894-1.503 1.44-2.245.802-1.098 1.477-2.227 2.134-3.418.547-.914 1.152-1.77 1.773-2.637 2.082-2.945 3.817-5.988 5.403-9.223.898-1.816 1.851-3.609 2.8-5.402l.535-1.016q.635-1.2 1.27-2.402l-.781-.39c1.855-1.563 1.855-1.563 2.734-1.563v-.781h1.172l.39-1.172.782.39v-.78l1.953-.391.39-1.172c1.692-1.172 1.692-1.172 2.735-1.172l.39-1.172c.954-.437.954-.437 1.954-.781Zm69.14 1.172h1.954v.781l.984.254c1.692.656 2.953 1.602 4.387 2.7.52.39 1.035.785 1.555 1.175l.687.524c.598.457.598.457 1.371.816v.781l1.172.39c.45 1.005.45 1.005.93 2.392 1.047 2.84 2.433 5.433 3.93 8.058l.636 1.117c2.379 4.133 4.973 8.13 7.672 12.063l.652.957.594.863c.43.723.43.723.43 1.504h.781l.39 1.563h.782l.39 1.953-4.222 2.757-1.192.778a486 486 0 0 1-5.882 3.789c-1.743 1.101-3.399 2.289-5.036 3.539-.855.465-.855.465-1.667.457-1.055-.54-1.41-1.2-2.02-2.215l-.715-1.183-.75-1.282c-.25-.426-.504-.855-.762-1.297-2.785-4.812-5.37-9.73-7.832-14.718l-.629-1.145c-1.488-3.297-1.058-6.98-.109-10.371.941-3.742 1.23-7.312 1.152-11.164l-.035-2.578-.02-1.13c.032-.956.032-.956.423-2.128" style="stroke:none;fill-rule:nonzero;fill:#254050;fill-opacity:1"/><path d="m175.781 212.5.188 1.188c1.941 11.66 8.699 20.925 16.508 29.484q.903.991 1.789 2c1.332 1.512 2.64 2.953 4.195 4.242l1.148.977v.78h-2.343v-.78c-2.852.543-5.141 1.746-7.664 3.148l-1.262.691c-3.582 1.985-6.996 4.133-10.371 6.446l-1.285.87-1.125.786c-.95.559-.95.559-2.121.559-2.18-7.637-4.149-15.29-5.86-23.047l-.308-1.352c-3.735-16.55-3.735-16.55-.083-22.867 2.06-2.523 5.434-3.125 8.594-3.125" style="stroke:none;fill-rule:nonzero;fill:#fcfcfb;fill-opacity:1"/><path d="M225.867 212.883c2.406.176 4.637.387 6.555 1.96 2.254 3.036 2.476 6.813 2.441 10.45l-.008 1.156c-.046 3.563-.613 6.828-1.414 10.29q-.597 2.577-1.187 5.156c-3.348 14.632-3.348 14.632-5.691 21.777l-.391-.781a34 34 0 0 0-1.563-.782 72 72 0 0 1-1.652-1.02l-.953-.6-.984-.626-.961-.605a222 222 0 0 1-4.723-3.07c-6.004-4.2-6.004-4.2-12.992-5.407 1.199-1.433 2.386-2.785 3.758-4.054 1-.973 1.535-1.774 2.027-3.075.812-2.035 2.16-3.355 3.652-4.93 6.336-6.831 11.106-14.988 12.602-24.214.297-1.613.297-1.613 1.484-1.625" style="stroke:none;fill-rule:nonzero;fill:#fcfdfc;fill-opacity:1"/><path d="M286.719 268.36c1.172.39 1.172.39 1.562 1.171 1.473 10.867 1.18 22.125 1.344 33.074.055 3.665.129 7.32.234 10.98q.105 3.903.145 7.798c.02 1.547.047 3.086.101 4.629.332 9.297.332 9.297-1.296 11.629-1.532 1.457-3.235 2.316-5.196 3.054-1.133.453-2.11 1.102-3.117 1.778q-.964.592-1.93 1.18l-1.011.628-.965.586-.844.52c-.746.316-.746.316-1.918-.075l.145-.664c.507-2.437.879-4.875 1.199-7.347.2-1.235.484-2.414.797-3.621.398-1.711.629-3.453.886-5.188l.407-2.687.222-1.496c.434-2.883.875-5.762 1.317-8.645q.229-1.495.453-2.996c.422-2.77.848-5.527 1.422-8.27.918-4.41 1.691-8.875 2.137-13.359.39-3.918 1.07-7.785 1.742-11.664.222-1.305.433-2.613.644-3.918l.215-1.309q.205-1.253.402-2.507l.188-1.133.16-1c.164-.758.164-.758.555-1.149" style="stroke:none;fill-rule:nonzero;fill:#040d1a;fill-opacity:1"/><path d="M112.5 268.75h1.172c.543 2.07.984 4.133 1.316 6.25q.296 1.841.59 3.688l.313 1.957q.31 1.943.62 3.894.365 2.297.747 4.594a346 346 0 0 1 1.851 12.8c.344 2.692.801 5.348 1.329 8.008.328 1.704.585 3.414.843 5.13a424 424 0 0 0 1.856 11.058l.261 1.437q.251 1.396.508 2.797c.504 2.79.942 5.586 1.309 8.399.117 1.062.117 1.062.566 1.863.09.86.16 1.723.219 2.59l.102 1.406.07 1.082c-2.395-.305-4.317-1.61-6.344-2.828a51 51 0 0 0-3.71-1.984c-4.598-2.387-4.598-2.387-5.563-4.7-.586-2.683-.375-5.406-.23-8.128q.027-1.343.05-2.684c.047-2.383.137-4.758.238-7.137.094-2.449.149-4.898.207-7.347.094-3.844.211-7.688.34-11.532q.223-6.55.281-13.105l.016-1.676q.017-1.534.027-3.074c.024-2.219.047-4.438.086-6.656l.012-1.075c.035-1.824.219-3.312.918-5.027" style="stroke:none;fill-rule:nonzero;fill:#030c19;fill-opacity:1"/><path d="m170.629 141.309 1.426-.032c2.55.239 3.984 1.422 5.68 3.254l.902.805c.66.758.66.758.66 2.32h.781c.188 5.7.188 5.7-1.683 8.278-2.32 2.425-3.88 3.082-7.204 3.199-3.175-.04-5.171-1.305-7.472-3.395-1.735-1.867-2.422-3.793-2.563-6.324.09-1.898.535-3.387 1.735-4.883 2.5-2.117 4.441-3.18 7.738-3.222m64.973 1.507c.726.543.726.543 1.117 1.715l.758.367c1.02.524 1.164.922 1.585 1.977.34 2.57-.015 5.094-1.171 7.422-.578.683-.578.683-1.172 1.172h-.781l-.243.707c-.882 1.406-2.23 1.87-3.804 2.246-2.582.43-5.211.656-7.453-.871-2.141-1.828-3.56-3.653-3.817-6.531-.117-3.102.832-5.133 2.902-7.422 3.493-3.164 8.13-2.875 12.079-.782" style="stroke:none;fill-rule:nonzero;fill:#f7ad8e;fill-opacity:1"/><path d="M148.828 125.781c2.473 1.754 4.152 4.582 5.86 7.031l.39-3.906h.39l.016.84c.121 5.18.27 10.137 1.547 15.176q.236 1.06.465 2.125l.316 1.39-2.734-.39v.781l-1.414-.242c-1.539-.203-2.613.02-4.055.633l-.39-1.172h-1.563c-3.445-5.727-5.71-10.711-4.687-17.578 1.008-2.778 2.594-5.254 5.86-4.688" style="stroke:none;fill-rule:nonzero;fill:#f7caaa;fill-opacity:1"/><path d="m198.047 166.406 1.562.781c1.164-.117 2.078-.257 3.125-.78 2.645-.333 4.364.69 6.641 1.952 1.543.801 3.027 1.438 4.688 1.953v.782c-1.036.57-1.52.781-2.735.781l-.277.84c-1.36 3-4.14 5.652-7.145 6.972-2.86.864-5.789.805-8.472-.539-2.668-1.62-4.516-3.93-6.403-6.375-.808-.968-1.605-1.46-2.703-2.07v-.39l1.442-.415c1.675-.546 3.113-1.32 4.636-2.199 2.063-1.14 3.309-1.676 5.64-1.293" style="stroke:none;fill-rule:nonzero;fill:#f28564;fill-opacity:1"/><path d="M251.27 125.563c1.988.296 2.964.992 4.199 2.562 1.96 3.43 2.219 7.629 1.234 11.418a41 41 0 0 1-1.234 3.035q-.394.974-.781 1.953l-.782-.39-.386.726-.516.957-.508.95a8.8 8.8 0 0 1-1.715 2.054l-.66-.387c-1.027-.449-1.738-.488-2.855-.468l-1 .007c-.887.063-1.664.211-2.516.458l-.39-1.172-.255-.664c-.207-1.36.125-2.618.403-3.95.605-3.152.887-6.242 1.023-9.449h.781l.305-.84c.508-1.191 1.121-2.222 1.82-3.308l.708-1.118c1.449-2.085 1.449-2.085 3.125-2.374" style="stroke:none;fill-rule:nonzero;fill:#f7c9aa;fill-opacity:1"/><path d="M178.125 58.594c.91 1.14 1.55 2.265 2.16 3.59l.563 1.207.597 1.28c4.125 8.704 9.207 16.321 15.145 23.88.676.902.676.902.676 1.293-4.086-.356-7.067-2.074-10.157-4.688l-.968-.71c-1.141-.985-1.95-2.067-2.766-3.317l-.496-.754c-1.508-2.344-2.824-4.785-4.117-7.254l-.594-1.129c-3.64-7.086-3.64-7.086-3.168-9.492.82-1.66 1.574-2.871 3.125-3.906" style="stroke:none;fill-rule:nonzero;fill:#1f1e20;fill-opacity:1"/><path d="M189.063 116.797c1.574 1.734 1.796 3.215 1.953 5.469-1.434.511-2.395.261-3.84-.141l-1.336-.367-1.39-.395-1.38-.383a440 440 0 0 1-5.37-1.523c-4.942-1.371-11.036-1.144-15.981.074.586-1.445 1.402-2.187 2.613-3.148l.98-.797c6.25-4.242 17.27-1.668 23.75 1.21" style="stroke:none;fill-rule:nonzero;fill:#473934;fill-opacity:1"/><path d="m198.047 166.406 1.562.781c1.164-.117 2.078-.257 3.125-.78 2.645-.333 4.364.69 6.641 1.952 1.543.801 3.027 1.438 4.688 1.953v.782c-5.649 3.328-15.735 1.758-21.95 1.246l-1.082-.082c-1.832-.176-3.207-.375-4.703-1.555v-.39l1.442-.415c1.675-.546 3.113-1.32 4.636-2.199 2.063-1.14 3.309-1.676 5.64-1.293" style="stroke:none;fill-rule:nonzero;fill:#ec6542;fill-opacity:1"/><path d="M180.457 125.414c3.082 1.426 6.145 3.773 7.434 7.008-.141.887-.141.887-.391 1.562l-.445-.629c-1.153-1.593-2.227-2.91-3.852-4.058l-.117.7c-.371 1.964-.742 3.331-2.227 4.769-1.761.586-3.257.672-4.98-.075-1.043-.84-1.527-1.421-2.05-2.66-.145-1.36-.235-2.656.39-3.906-1.602.398-2.621.973-3.86 2.027-1.144.899-1.828 1.274-3.293 1.145-1.546-.469-1.77-.719-2.613-2l2.758-1.488.777-.422c4.012-2.153 7.926-3.348 12.469-1.973" style="stroke:none;fill-rule:nonzero;fill:#312522;fill-opacity:1"/><path d="M229.852 125.645c2.355 1.109 4.484 2.351 6.476 4.043-1.3.855-2.34 1.468-3.906 1.562-1.074-.633-1.074-.633-2.172-1.512-1.672-1.37-1.672-1.37-3.687-2.004l.39.832c.445 1.286.555 2.114.39 3.465-.632 1.176-1.195 2.055-2.245 2.883-1.633.453-3.203.688-4.715-.152-1.047-.84-1.598-1.446-2.024-2.73-.05-1.044-.015-2.079 0-3.126-1.836 1.11-2.972 2.223-4.297 3.906q-.573.599-1.171 1.172c.062-2.5 1.414-3.816 3.125-5.468 3.93-3.422 8.863-4.942 13.836-2.871" style="stroke:none;fill-rule:nonzero;fill:#2d211d;fill-opacity:1"/><path d="M155.078 128.906h.39l.016.84c.121 5.18.27 10.137 1.547 15.176q.236 1.06.465 2.125l.316 1.39c-4.414-1.527-6.851-5.46-8.984-9.375l-.406-.722c-2.36-4.235-2.36-4.235-2.254-6.004.316-1.086.316-1.086 1.098-2.258.89-.113.89-.113 1.93-.074l1.034.035.942.04h1.172c.804.929.804.929 1.562 1.952l.781.781Zm0 0" style="stroke:none;fill-rule:nonzero;fill:#e8805a;fill-opacity:1"/><path d="M264.844 256.64c-.207 1.544-.574 2.337-1.637 3.47l-.742.804-.746.805q-.626.726-1.246 1.465c-.848.988-1.688 1.964-2.66 2.832h-.782l-.27.683c-.648 1.113-1.456 1.637-2.464 2.442a71 71 0 0 0-2.09 2.382l-.644.743-.57.707c-.602.464-.602.464-1.364.449-1.066-.5-1.57-1.133-2.29-2.059l-.741-.925c-.504-.907-.504-.907-.493-1.72 1.88-3.722 9.047-6.753 12.489-8.952l.832-.536c.703-.449 1.414-.898 2.12-1.343l1.177-.742c.949-.504.949-.504 2.12-.504" style="stroke:none;fill-rule:nonzero;fill:#061421;fill-opacity:1"/><path d="M229.688 116.406v.781l1.171.391-.664.117c-2.484.461-4.886 1.114-7.308 1.836-1.035.29-2.051.54-3.102.766-2.168.469-4.289 1.086-6.418 1.703l-.902.258-.805.23c-.722.168-.722.168-1.894.168.011-.601.039-1.203.074-1.804l.039-1.02c.379-1.484 1.043-2.484 2.23-3.426 1.196-.531 2.41-.82 3.688-1.097l.984-.243c5.176-1.238 8.262-1.578 12.906 1.34" style="stroke:none;fill-rule:nonzero;fill:#453834;fill-opacity:1"/><path d="M135.156 256.64c3.828.673 7.742 3.946 10.864 6.153 1.953 1.375 3.945 2.687 5.933 4.004l1.172.781v.781h.781c-.594 2.11-2.058 3.508-3.515 5.079-1.125-.508-1.922-1.047-2.786-1.926l-.664-.672-.675-.7-.684-.69c-.422-.43-.84-.856-1.258-1.286q-.602-.614-1.234-1.2c-.512-.558-.512-.558-.512-1.339h-.781c-.594-.613-.594-.613-1.27-1.441-.859-1.016-1.687-1.918-2.734-2.735-1.652-1.39-2.332-2.683-2.637-4.808" style="stroke:none;fill-rule:nonzero;fill:#061522;fill-opacity:1"/><path d="M251.953 129.688c.93.609.93.609 1.563 1.562.254 2.258-.282 3.512-1.637 5.25l-.52.695c-.574.758-1.16 1.512-1.75 2.258l-.656.836c-4.144 5.227-4.144 5.227-5.984 6.977.191-1.922.437-3.813.781-5.711.48-2.774.637-5.543.781-8.352h.781l.344-.93c.438-1.023.438-1.023 1.219-1.804h1.563c1.363-.91 1.91-.977 3.515-.781" style="stroke:none;fill-rule:nonzero;fill:#ea8157;fill-opacity:1"/><path d="M173.047 76.172c-.445 1.34-.86 1.656-1.93 2.539-1.004.832-1.633 1.437-2.367 2.539v2.344h7.031c0 1.172 0 1.172-.707 2.027-.855.707-.855.707-2.027.707l-.39 1.172c-.868.797-.868.797-1.93 1.637l-1.059.847c-.918.641-.918.641-1.7.641v.781h-1.562l-.39-.781c-.875-.195-.875-.195-1.953 0-.676.566-1.243 1.168-1.825 1.832-.52.512-.52.512-1.3.512l-.391 1.172c-.563-1.696.215-2.774.953-4.297l.434-.906c1.992-4.04 4.726-7.692 7.988-10.813h.781v-.781c1.352-1.172 1.352-1.172 2.344-1.172" style="stroke:none;fill-rule:nonzero;fill:#6b615f;fill-opacity:1"/><path d="M226.563 127.734c1.671.215 2.675.79 4.027 1.782l1.047.757.785.586c-.274 2.106-.66 2.942-2.344 4.297-2.2 1.153-4.004 1.371-6.469 1.344l-1.03-.004c-3.028-.066-5.669-.676-8.517-1.73-.273-.875-.273-.875-.39-1.953.492-.848.492-.848 1.219-1.637l.71-.797c.88-.754 1.669-1.106 2.758-1.473l.102.887c.324 2.402.324 2.402 1.508 4.46 1.754.798 3.281.802 5.152.243 1-.777 1.363-1.262 1.832-2.465-.02-1.449-.183-2.863-.39-4.297" style="stroke:none;fill-rule:nonzero;fill:#f7f3ee;fill-opacity:1"/><path d="M201.953 254.297c1.059.71 1.774 1.203 2.344 2.344.16 1.652.101 2.546-.684 4.027-1.285 1.535-1.285 1.535-2.441 1.832-1.563-.055-2.438-.148-3.664-1.148-1.09-1.383-1.227-2.454-1.207-4.188.285-1.414.996-2.05 2.137-2.879 1.312-.637 2.16-.441 3.515.012" style="stroke:none;fill-rule:nonzero;fill:#93cbd7;fill-opacity:1"/><path d="M174.219 127.344H175v1.172l1.54-.27c2.05-.238 3.612.266 5.491 1.05v-.78h.781c.149 1.863.18 3.164-.683 4.859-1.27 1.445-1.871 1.73-3.785 1.902-1.504-.132-2.176-.351-3.344-1.293-1.383-1.668-1.305-3-1.172-5.078.195-.976.195-.976.39-1.562" style="stroke:none;fill-rule:nonzero;fill:#423934;fill-opacity:1"/><path d="M201.563 331.25c1.003.586 1.91 1.129 2.734 1.953.172 1.192.187 2.324 0 3.516-.953 1.172-.953 1.172-1.953 1.953l-.39.39c-1.173.137-1.99.22-3.126 0-1.207-1.003-1.789-1.605-2.125-3.125-.086-1.445.129-2.277.906-3.492 1.309-1.273 2.141-1.37 3.953-1.195" style="stroke:none;fill-rule:nonzero;fill:#74b5c9;fill-opacity:1"/><path d="M201.953 317.188c1.098.699 1.762 1.18 2.344 2.343.152 1.633.176 2.465-.734 3.86-1.118 1.117-1.774 1.296-3.32 1.367-1.45-.012-1.68-.028-2.782-1.078-.875-1.532-1.152-2.36-.977-4.149 1.48-2.222 2.82-2.722 5.47-2.344" style="stroke:none;fill-rule:nonzero;fill:#9cd2dd;fill-opacity:1"/><path d="M201.563 267.969c1.074.703 1.769 1.191 2.343 2.344.274 2.785.274 2.785-.93 4.273-1.468 1.156-2.269 1.418-4.148 1.195-1.484-1.254-2.254-2.07-2.516-4.004.2-1.699.567-2.273 1.82-3.379 1.2-.742 2.071-.675 3.43-.43" style="stroke:none;fill-rule:nonzero;fill:#375263;fill-opacity:1"/><path d="M201.563 295.313c1.074.703 1.769 1.19 2.343 2.343.137 1.176.223 1.989 0 3.125-1.008 1.211-1.617 1.766-3.125 2.153-.804.07-.804.07-2.344-.2-1.394-1.191-1.886-1.918-2.171-3.734.254-1.547.683-2.2 1.78-3.297 1.212-.605 2.18-.504 3.517-.39" style="stroke:none;fill-rule:nonzero;fill:#334d5b;fill-opacity:1"/><path d="m173.438 127.734 1.171.391-.39.781c-.156 1.89-.188 2.774.707 4.469.781 1.086.781 1.086 2.027 1.39v.782h2.344c-1.102 1.101-1.856.91-3.395.93-2.402-.043-3.738-.176-5.59-1.711-.734-.883-1.335-1.762-1.953-2.735.567-1.418 1.258-2 2.54-2.808l.94-.602c.817-.496.817-.496 1.599-.887" style="stroke:none;fill-rule:nonzero;fill:#f8f6f1;fill-opacity:1"/><path d="M232.813 173.828h.39c.203 1.625.078 2.23-.871 3.602q-.57.65-1.156 1.28l-1.137 1.282-.574.63a54 54 0 0 0-1.598 1.905c-.914 1.067-.914 1.067-2.183 1.922-1.614 1.649-1.454 3.164-1.465 5.395l-.031 1.414c-.043 2.625-.043 2.625.226 5.226.215 1.282.234 2.485.219 3.786l-.012 1.32-.012 1.144c0 1.442.188 2.844.368 4.274l.101.847c.2 1.965.2 1.965.703 3.864l1.172.781c-.652.016-1.3.016-1.953 0-2.867-2.867-1.84-13.16-1.867-16.945a117 117 0 0 0-.055-2.61c-.23-7.254-.23-7.254 1.172-9.453.984-.87 1.98-1.547 3.094-2.242.851-.887 1.582-1.848 2.32-2.832l.535-.691c.965-1.254 1.801-2.543 2.613-3.899" style="stroke:none;fill-rule:nonzero;fill:#231a12;fill-opacity:1"/><path d="M153.125 149.219c.781.781.781.781.781 1.953l.953-.024c1 .024 1 .024 1.391.415.055 1.042.016 2.078 0 3.125-3.316 1.039-3.316 1.039-4.687.78-1.168-1.234-1.895-2.183-2.075-3.882.121-1.195.121-1.195.782-1.93 1.054-.511 1.695-.59 2.855-.437" style="stroke:none;fill-rule:nonzero;fill:#69cbdb;fill-opacity:1"/><path d="M220.313 225h.78c-1.777 6.11-7.085 11.727-11.323 16.328a80 80 0 0 0-2.153 2.469l-.976 1.125h-.391v-1.953h1.172l.781-2.735-.633.391c-1.14.48-2.05.445-3.273.39.976-.816 1.984-1.406 3.117-1.976 5.871-2.976 10.75-7.598 12.899-14.039" style="stroke:none;fill-rule:nonzero;fill:#e68e68;fill-opacity:1"/><path d="M145.703 92.969h.39c-.374 7.734-3.777 15.379-6.25 22.656l-.78-.39c.503-3.907 1.566-7.583 2.734-11.329l.34-1.101c.355-1.157.715-2.309 1.074-3.465l.344-1.102c.586-1.851 1.215-3.566 2.148-5.27" style="stroke:none;fill-rule:nonzero;fill:#aec8d0;fill-opacity:1"/><path d="M247.266 148.828c1.492.207 2.367.586 3.515 1.563-.09 1.53-.285 2.558-1.074 3.882-1.996 1.266-4.047.957-6.348.805l1.563-.39-.07-.715c-.055-.965-.07-1.844.07-2.801.953-.953.953-.953 1.953-1.563Zm0 0" style="stroke:none;fill-rule:nonzero;fill:#73b4c3;fill-opacity:1"/><path d="M111.328 275h.39c.032 13.34-.046 26.672-.179 40.012q-.04 3.627-.07 7.254l-.14 14.062-.782.39-.781-.39v-.781h.78l.005-.715.129-17.43q.032-4.216.062-8.43c.168-24.23.168-24.23.586-33.972" style="stroke:none;fill-rule:nonzero;fill:#0f1f2e;fill-opacity:1"/><path d="M217.969 128.516h.781v.78l.781.392 1.172-.391-.39 2.734 2.734.39.39-1.562.391 1.563H225l.781-2.734h.39v1.953h.782v-1.953h.39c.196 2.066-.253 3.09-1.562 4.687-1.156.91-2.437.977-3.894.922-1.07-.188-1.875-.606-2.672-1.348-1-1.61-1.074-3.582-1.246-5.433" style="stroke:none;fill-rule:nonzero;fill:#4c3f38;fill-opacity:1"/><path d="m225.781 126.953 1.563.781h-.781l.39.782c.05 1.043.016 2.078 0 3.125h-.781l-.39-.782-.782 1.953-1.172-.39-.39-1.172-.391 1.172-2.734-.39.39-2.735h-.781l-.39 1.172-.391-1.563.953-.367c.957-.32.957-.32 1.39-.805 1.43-.054 2.543-.066 3.907.391Zm0 0" style="stroke:none;fill-rule:nonzero;fill:#3a322f;fill-opacity:1"/><path d="M200.781 76.953c1.239.55 2.078 1.211 3.051 2.149 6.738 6.078 15.5 10.597 24.293 12.695v.39c-2.36.102-4.219-.183-6.445-.953l-.922-.316c-7.598-2.727-14.336-7.879-19.977-13.574Zm0 0" style="stroke:none;fill-rule:nonzero;fill:#796f6d;fill-opacity:1"/><path d="M182.813 128.906c1.375.762 2.53 1.496 3.515 2.735.098 1.074.098 1.074 0 1.953h.781c-.222.738-.222.738-.78 1.562-1.231.41-1.231.41-2.712.684l-1.476.285c-1.282.203-1.282.203-2.453.203.43-.965.832-1.617 1.562-2.39 1.094-1.57 1.29-3.165 1.563-5.032" style="stroke:none;fill-rule:nonzero;fill:#f6f5f1;fill-opacity:1"/><path d="M254.297 126.563c1.539.226 2.41.874 3.516 1.953 1.664 2.55 1.664 2.55 1.406 4.004l-.235.683h-.78l-.06 1.074c-.269 4.414-.722 7.641-3.066 11.426h-.781c.191-1.871.785-3.344 1.586-5.02 1.41-3.23 1.207-7.417.023-10.68a47 47 0 0 0-1.61-3.44" style="stroke:none;fill-rule:nonzero;fill:#251c19;fill-opacity:1"/><path d="m247.313 124.977 1.078.23.828.184c0 1.894-.711 2.84-1.735 4.343-1.156 1.692-1.156 1.692-2.172 3.47h-.78V125c1.062-.531 1.632-.273 2.78-.023" style="stroke:none;fill-rule:nonzero;fill:#291d19;fill-opacity:1"/><path d="M182.031 128.516h.781c.149 1.863.18 3.164-.683 4.859-1.27 1.445-1.27 1.445-2.441 1.781-.91.031-1.825.035-2.735 0l.39-1.562-1.171.39v-.78h-.781L175 131.64h.781l.39-.782.466.782c.648.894.648.894 1.758.879l.902-.098.781-3.125h1.563Zm0 0" style="stroke:none;fill-rule:nonzero;fill:#4d3e38;fill-opacity:1"/><path d="m207.813 243.36.39 1.171c-.465.703-.465.703-1.172 1.465l-.758.824q-1.74 1.815-3.539 3.57l.7.032c2.062.148 3.25.402 4.77 1.922h-1.954l-.39 1.172-.653-.375c-1.023-.457-1.852-.563-2.96-.649l-1.056-.09-.8-.058.39-.781-1.172-.782.98-.594c1.68-1.12 3.036-2.554 4.442-3.996l.813-.824q.984-1.001 1.969-2.008" style="stroke:none;fill-rule:nonzero;fill:#fdf5ec;fill-opacity:1"/><path d="M253.906 143.75c.39 1.172.39 1.172-.113 2.285l-.742 1.254-.723 1.258c-.742 1.031-1.156 1.426-2.328 1.844l-.488-.563c-.754-.672-1.262-.832-2.246-1l-.317.734c-.465.829-.465.829-1.637 1.61-.226.86-.226.86-.269 1.805l-.078.968-.043.743-1.953-.391c.285-1.352.601-2.645 1.172-3.906 1.246-.633 1.246-.633 2.343-.782l.391-1.953c1.543-.07 2.578-.035 3.906.781.992-.898 1.59-1.824 2.223-3.003.168-.317.34-.63.516-.957Zm0 0" style="stroke:none;fill-rule:nonzero;fill:#d3d3c3;fill-opacity:1"/><path d="M165.625 217.578c.887 1.328.848 1.504.602 2.996-.082.524-.082.524-.168 1.055l-.192 1.101-.18 1.114q-.217 1.359-.453 2.719h-.39v-7.032l-5.469 2.735c.488-1.465 1-1.657 2.344-2.344h.781l.39-1.172c.954-.437.954-.437 1.954-.781Zm-7.031 4.688.781.39c-1.855 1.563-1.855 1.563-2.734 1.563V225c-.637.41-1.29.805-1.953 1.172l-1.172.781-1.172-.39c1.855-1.563 1.855-1.563 2.734-1.563v-.781h1.172l.39-1.172.782.39v-.78Zm0 0" style="stroke:none;fill-rule:nonzero;fill:#25353f;fill-opacity:1"/><path d="M135.156 127.734h.39c.364 3.825.438 7.614.415 11.45 0 .562-.004 1.12-.004 1.683q-.007 2.027-.02 4.055c-1.734-2.602-1.687-5.496-1.66-8.52l.004-1.148c.031-2.566.207-5.031.875-7.52" style="stroke:none;fill-rule:nonzero;fill:#97b3b8;fill-opacity:1"/><path d="m148.047 147.656 1.562.39v1.173l1.246-.633c1.141-.5 1.375-.57 2.637-.223l.805.465V150l1.148.293 1.196.488c.242.781.242.781.39 1.563.774.5.774.5 1.563.781-.465.977-.465.977-1.172 1.953-1.05.121-1.05.121-1.953 0l.781-.39-.39-3.125-.93-.098c-1.024-.293-1.024-.293-1.535-1.098l-.27-.758c-1.414-.078-2.29.055-3.516.782-1.562-1.856-1.562-1.856-1.562-2.735" style="stroke:none;fill-rule:nonzero;fill:#e2d5be;fill-opacity:1"/><path d="M220.313 225h.78c-1.628 5.61-6.374 11.207-10.546 15.234l.195-.902c.23-1.066.23-1.066.196-2.223a59 59 0 0 1 1.687-1.093c1.156-.825 1.953-1.93 2.805-3.055l.562-.73c1.7-2.235 3.426-4.547 4.32-7.231" style="stroke:none;fill-rule:nonzero;fill:#d6906e;fill-opacity:1"/><path d="M244.531 133.594h.39v7.812l1.563-.39c.305.836.305.836.391 1.953-.73 1.133-.73 1.133-1.734 2.27l-1 1.156-.782.87c-.613-1.577-.18-3.038.149-4.64.578-3.012.883-5.96 1.023-9.031" style="stroke:none;fill-rule:nonzero;fill:#e88760;fill-opacity:1"/><path d="M247.266 148.828c.93.121.93.121 1.953.39l.781 1.173h-1.562l-.075.683c-.445 1.238-1.199 1.711-2.27 2.442h-.78l.39.78c.988.259.988.259 1.953.392v.39h-4.297l1.563-.39-.07-.715c-.055-.965-.07-1.844.07-2.801.953-.953.953-.953 1.953-1.563Zm0 0" style="stroke:none;fill-rule:nonzero;fill:#95ccd7;fill-opacity:1"/><path d="M194.531 155.078c2.578.234 2.578.234 3.516 1.172.098.977.098.977 0 1.953l-.781.781c-1.368-.074-1.368-.074-2.735-.39-.781-1.172-.781-1.172-.66-2.196.27-.93.27-.93.66-1.32" style="stroke:none;fill-rule:nonzero;fill:#e08259;fill-opacity:1"/><path d="m235.156 130.86-.39.78h-.782l-.343.903c-.438 1.05-.438 1.05-1.22 2.223h-.78v.78c-1.602 1.556-2.809 1.665-5.032 1.661a98 98 0 0 1-2.39-.098v-.39l1.14-.313 1.496-.422 1.485-.41c1.515-.469 1.515-.469 2.91-1.199.488-.941.488-.941.781-1.953.39-1.172.39-1.172 1.344-1.66 1-.293 1-.293 1.781.097" style="stroke:none;fill-rule:nonzero;fill:#d99b77;fill-opacity:1"/><path d="M201.953 317.188c1.098.699 1.762 1.18 2.344 2.343.152 1.633.176 2.465-.734 3.86-1.118 1.117-1.774 1.296-3.32 1.367-1.485-.008-1.684-.031-2.805-1.125l-.563-.977h1.172l.781.781c1.442.079 2.531.067 3.906-.39.625-1.477.926-2.32.391-3.86-.738-.902-.738-.902-1.879-1.242-1.605.032-2.348.61-3.59 1.586.149-.953.149-.953.39-1.953 1.25-.625 2.552-.586 3.907-.39" style="stroke:none;fill-rule:nonzero;fill:#a8ced3;fill-opacity:1"/><path d="m206.25 155.078.781.781c-.129 1.024-.32 1.813-.781 2.735-1.344.293-1.344.293-2.734.39l-.782-.78c.082-1.079.262-1.767.88-2.661.929-.633 1.534-.606 2.636-.465" style="stroke:none;fill-rule:nonzero;fill:#e8825a;fill-opacity:1"/><path d="M221.875 186.328c0 1.504-.445 1.86-1.39 3.004l-.856 1.04a215 215 0 0 1-3.613 4.16c-.23-.727-.23-.727-.391-1.563.563-.88.563-.88 1.172-1.563l-.781-.39Zm0 0" style="stroke:none;fill-rule:nonzero;fill:#e3875f;fill-opacity:1"/><path d="M188.598 363.469c1.007.238 1.933.265 2.968.281l1.282.023 1.37.024 1.415.023 4.465.07 3.027.051c2.473.043 4.95.082 7.422.122v.39q-4.771.028-9.543.04-2.22.005-4.434.019-2.138.014-4.277.015-.816.001-1.633.008c-.762.008-1.523.008-2.285.008l-1.316.004c-1.106-.094-1.746-.3-2.684-.875.555-.078 1.105-.149 1.66-.219l.934-.125c.922-.047.922-.047 1.629.14" style="stroke:none;fill-rule:nonzero;fill:#323d4a;fill-opacity:1"/><path d="M167.188 131.25h1.171c.547.727.547.727 1.098 1.684 1.461 2.28 2.914 2.87 5.496 3.468q.801.165 1.61.317v.39c-.82.012-1.645.02-2.465.024l-1.387.015c-1.227-.039-1.227-.039-2.399-.43v-1.171l-.734-.27c-1.07-.66-1.238-1.289-1.61-2.464h-.78Zm0 0" style="stroke:none;fill-rule:nonzero;fill:#dea484;fill-opacity:1"/><path d="M206.25 250.781c1.148.805 1.148.805 1.953 1.563h-1.953l-.39 1.172-.653-.375c-1.023-.457-1.852-.563-2.96-.649l-1.056-.09-.8-.058c1.804-1.887 3.3-2.203 5.859-1.563" style="stroke:none;fill-rule:nonzero;fill:#d1e0eb;fill-opacity:1"/><path d="M155.078 124.61h.39c.055 3.019-.097 5.98-.39 8.984-1.223-1.164-2.23-2.395-3.223-3.758l-.835-1.14c-.63-.962-.63-.962-.63-1.743h1.173c.5.656.5.656.976 1.516.668 1.195.965 1.601 2.149 2.39l-.243-.93c-.195-1.874.196-3.495.633-5.32" style="stroke:none;fill-rule:nonzero;fill:#3c241d;fill-opacity:1"/><path d="M223.438 198.828h.39q.199.94.39 1.879l.22 1.059c.171.968.171.968.171 2.14q.17 1.551.368 3.102l.101.847c.2 1.965.2 1.965.703 3.864l1.172.781c-.652.016-1.3.016-1.953 0-.895-.895-.82-2.773-1-3.98l-.164-1.063a45.5 45.5 0 0 1-.399-8.629" style="stroke:none;fill-rule:nonzero;fill:#3a2a21;fill-opacity:1"/><path d="M143.36 97.656c.421 1.453.285 2.156-.243 3.59a103 103 0 0 0-1.93 6.055 141 141 0 0 1-2.125 6.761c-.53-1.457-.242-2.414.2-3.87l.41-1.368.441-1.426.418-1.394a131 131 0 0 1 2.828-8.348" style="stroke:none;fill-rule:nonzero;fill:#91b1bb;fill-opacity:1"/><path d="M176.563 184.375c1.652 1.414 3.187 2.75 4.687 4.297-1.426-.516-2.262-1.012-3.516-1.953l-.39 12.5h-.39Zm0 0" style="stroke:none;fill-rule:nonzero;fill:#ce8565;fill-opacity:1"/><path d="M197.266 250.39v.782l1.953.39v.782l-4.688.781v-1.172l-2.344.39c1.56-1.714 2.77-2.058 5.079-1.952" style="stroke:none;fill-rule:nonzero;fill:#d1e0ec;fill-opacity:1"/><path d="m241.016 153.906 2.343.781v1.172l-1.172-.39q-1.394 3.702-2.734 7.422h-.781c.277-2.004.808-3.88 1.39-5.813l.278-.926q.335-1.123.676-2.246" style="stroke:none;fill-rule:nonzero;fill:#352923;fill-opacity:1"/><path d="m180.469 135.156-.781 1.172h2.734c-2.965 1.856-7.18 1.211-10.547 1.172v-.39l2.734-.391v-.39l3.907-.392-1.563-.78c2.637-.438 2.637-.438 3.516 0" style="stroke:none;fill-rule:nonzero;fill:#e9ccb5;fill-opacity:1"/><path d="M232.813 173.828h.39c.195 1.613.078 2.23-.855 3.598q-.54.626-1.098 1.234l-.566.649q-.684.782-1.387 1.55l-1.172-.78.727-.872.957-1.156.949-1.137c.777-1 1.41-2.004 2.054-3.086" style="stroke:none;fill-rule:nonzero;fill:#342922;fill-opacity:1"/><path d="M178.32 129.64c.977.048.977.048 1.368.438.046 1.172.046 1.172 0 2.344-.391.39-.391.39-1.344.465-1-.075-1-.075-1.781-.856.28-2.32.28-2.32 1.757-2.39" style="stroke:none;fill-rule:nonzero;fill:#241d1d;fill-opacity:1"/><path d="m204.297 333.984.39.782h1.172c0 1.476-.03 2.32-1.015 3.453-1.93 1.586-1.93 1.586-3.317 1.683-.746-.105-.746-.105-1.918-.449v-.39l1.27-.293c1.508-.504 2.125-.766 3.027-2.051.317-1.426.317-1.426.39-2.735" style="stroke:none;fill-rule:nonzero;fill:#e5f2f5;fill-opacity:1"/><path d="m206.25 166.797 2.281 1.14c.692.344 1.38.7 2.063 1.055 1.136.547 2.265.95 3.469 1.32v.782c-1.227.726-2.102.86-3.516.781l.781-1.562-1.344-.344-1.39-.438-.39-.781-1-.586-.954-.586Zm0 0" style="stroke:none;fill-rule:nonzero;fill:#dc6d4c;fill-opacity:1"/><path d="M221.094 129.688H225v1.953l-.781-.391v-.781h-.781l-.391 1.953h-1.953c-.438-1.856-.438-1.856 0-2.734" style="stroke:none;fill-rule:nonzero;fill:#2d2622;fill-opacity:1"/><path d="M140.625 228.906h6.25c-1.16 1.16-2.574 1.602-4.078 2.223l-.918.394-.887.368-.808.336c-.73.195-.73.195-1.903-.196l.926-.398 1.2-.531 1.195-.52c1.023-.406 1.023-.406 1.367-1.285h-2.344Zm0 0" style="stroke:none;fill-rule:nonzero;fill:#a9c8cf;fill-opacity:1"/><path d="M145.313 96.875c.894.805 1.152 1.04 1.343 2.27-.21 1.543-.84 2.328-1.734 3.59-.484 1.261-.484 1.261-.781 2.343h-.782c.594-2.75 1.262-5.476 1.953-8.203" style="stroke:none;fill-rule:nonzero;fill:#242e32;fill-opacity:1"/><path d="m153.125 149.219.781 1.562c-.933.387-1.82.75-2.808.977-.797.156-.797.156-1.489.976-.097-1.097-.097-1.097 0-2.343 1.075-1.196 1.953-1.301 3.516-1.172" style="stroke:none;fill-rule:nonzero;fill:#76c1d1;fill-opacity:1"/><path d="M166.797 237.89c.723 1.087 1.05 1.868 1.414 3.102q.15.497.312 1.012c.227.965.227.965.227 2.527h-1.953Zm0 0" style="stroke:none;fill-rule:nonzero;fill:#253742;fill-opacity:1"/><path d="m228.125 180.469.781.39c-.976 1.461-1.816 2.696-3.222 3.758-1.149.828-1.149.828-1.418 2.028l-.047.855c-.781-.781-.781-.781-.95-1.691.239-1.48.938-1.926 2.075-2.875l1.07-.907.93-.777Zm0 0" style="stroke:none;fill-rule:nonzero;fill:#2c2019;fill-opacity:1"/><path d="M237.5 165.625h.781l-.344.855c-.273.688-.546 1.383-.812 2.075-.672 1.718-1.328 3.34-2.36 4.882-.433-.687-.433-.687-.78-1.562.234-.75.234-.75.69-1.52.243-.414.243-.414.49-.84l.53-.863.516-.882q.638-1.08 1.289-2.145" style="stroke:none;fill-rule:nonzero;fill:#302622;fill-opacity:1"/><path d="m150 151.563.633.562c1.097.719 1.984.852 3.273 1l-.781 1.172.39 1.172c-.878.12-.878.12-1.952 0-1.063-1.004-1.532-1.582-1.66-3.051Zm0 0" style="stroke:none;fill-rule:nonzero;fill:#a4cad1;fill-opacity:1"/><path d="M176.953 218.75c.844.844 1.024 1.336 1.414 2.441.797 2.09 1.871 3.946 3.055 5.832 1.031 1.704 1.031 1.704.844 2.739l-.235.707c-.707-1.29-1.402-2.586-2.101-3.883l-.602-1.094c-1.195-2.246-1.95-4.23-2.375-6.742" style="stroke:none;fill-rule:nonzero;fill:#da8e6f;fill-opacity:1"/><path d="M225.781 129.688h.39v1.953h.782v-1.953h.39c.048 1.125.048 1.125 0 2.343l-.78.781h-.782l-1.172.782c-.91.031-1.824.035-2.734 0l.39-1.172h.782l.39-1.563.391 1.563H225Zm0 0" style="stroke:none;fill-rule:nonzero;fill:#5e514b;fill-opacity:1"/><path d="M191.406 242.188h1.563v1.171l.734.317c.828.465.828.465 1.61 1.637l.78-.391.782.39v2.735c-2.031-1.66-3.844-3.402-5.469-5.469Zm0 0" style="stroke:none;fill-rule:nonzero;fill:#dd906a;fill-opacity:1"/><path d="m176.441 125.367.829.004q1.013.007 2.027.02v.39l-3.906.39-.391 1.173c-1.016.644-1.508.781-2.734.781v-2.344c1.414-.472 2.703-.433 4.175-.414" style="stroke:none;fill-rule:nonzero;fill:#271b16;fill-opacity:1"/><path d="M189.453 118.36h.781c.625 1.37.868 2.398.782 3.906-1.43.515-2.375.254-3.809-.172l-1.164-.34-.887-.27c1.555-.418 3.09-.593 4.688-.78l.39-1.173h-.78Zm0 0" style="stroke:none;fill-rule:nonzero;fill:#685043;fill-opacity:1"/><path d="M155.86 141.797c.898 1.348 1.097 2.398 1.413 3.98.102.496.204.993.313 1.504q.11.573.226 1.156c-1.792-.652-2.878-1.48-4.296-2.734 1.172 0 1.172 0 2.343.39Zm0 0" style="stroke:none;fill-rule:nonzero;fill:#e28d68;fill-opacity:1"/><path d="m146.484 89.063.782.39-.782 4.297-.78-.39-1.563 4.296c-.383-1.539-.43-1.785.07-3.152l.32-.89.344-.915.332-.926c.824-2.257.824-2.257 1.277-2.71" style="stroke:none;fill-rule:nonzero;fill:#97b1b9;fill-opacity:1"/><path d="M203.516 256.64h.78c.18 2.223-.124 3.36-1.562 5.079-1.168.828-2.101.86-3.515.781v-.781c1.168-.778 2.191-1.13 3.515-1.563.586-.586.52-1.168.61-1.976Zm0 0" style="stroke:none;fill-rule:nonzero;fill:#a1cad0;fill-opacity:1"/><path d="M184.375 128.125c1.398 1.32 2.582 2.605 3.516 4.297-.157.851-.157.851-.391 1.562l-.457-.613a136 136 0 0 0-3.45-4.465Zm0 0" style="stroke:none;fill-rule:nonzero;fill:#3e2a22;fill-opacity:1"/><path d="M213.281 86.328c1.617.234 2.805.785 4.223 1.586l1.156.648.871.5-.39.782c-1.567-.227-2.68-.719-4.028-1.54l-1.047-.62-.785-.575Zm0 0" style="stroke:none;fill-rule:nonzero;fill:#847877;fill-opacity:1"/><path d="M201.563 331.25c1.32.734 1.32.734 2.343 1.563v.78h-.781v-.78c-.555-.079-1.105-.149-1.66-.22l-.934-.124c-.922-.047-1.605.07-2.484.344l-.39 1.562h-.782c.813-2.508 2-3.5 4.688-3.125" style="stroke:none;fill-rule:nonzero;fill:#87b8c2;fill-opacity:1"/><path d="M256.64 138.281c.438.61.438.61.782 1.563-.41 2.133-1.328 3.96-2.344 5.86h-.781c.191-1.872.785-3.345 1.586-5.02.347-.797.574-1.555.758-2.403" style="stroke:none;fill-rule:nonzero;fill:#312320;fill-opacity:1"/><path d="m201.953 254.297.39.781-1.952-.39-.391.78-1.953.391-.39.782h-.782v3.125h-.39c-.22-1.559-.391-2.934.511-4.286 1.621-1.535 2.746-1.89 4.957-1.183" style="stroke:none;fill-rule:nonzero;fill:#a1cad2;fill-opacity:1"/><path d="m155.469 150.781 1.562.39v1.173l1.563.781c-.465.977-.465.977-1.172 1.953-1.05.121-1.05.121-1.953 0l.781-.39-.172-1.516-.094-.852c-.09-.785-.09-.785-.515-1.539" style="stroke:none;fill-rule:nonzero;fill:#efd6bf;fill-opacity:1"/><path d="M246.484 149.61c-.39 1.171-.39 1.171-1.172 1.562-.183.832-.183.832-.242 1.781l-.09.98-.058.755-1.953-.391q.235-.954.488-1.906l.273-1.07c.41-.93.41-.93 1.184-1.446.79-.266.79-.266 1.57-.266" style="stroke:none;fill-rule:nonzero;fill:#d7d7cb;fill-opacity:1"/><path d="M217.969 128.516h.781v.78l.781.392 1.172-.391c-.344 1.855-.344 1.855-.781 2.734v1.172h-1.172Zm0 0" style="stroke:none;fill-rule:nonzero;fill:#443e3b;fill-opacity:1"/><path d="M158.594 68.75h.781l-.781 2.734h-.781l-.391 1.172h-2.344a407 407 0 0 1 1.707-1.953l.965-1.098Zm0 0" style="stroke:none;fill-rule:nonzero;fill:#2c2c2f;fill-opacity:1"/><path d="M265.625 137.89h.39q.018 2.649.024 5.298l.012 1.511.004 1.469.004 1.348c-.047 1.37-.215 2.691-.434 4.047h-.39l-.391-3.516h.781Zm0 0" style="stroke:none;fill-rule:nonzero;fill:#5d686a;fill-opacity:1"/><path d="m175.684 124.953 1.386.02 1.055.027v.39l-1 .07-1.297.103-1.289.093c-1.082.059-1.082.059-1.883.516v2.344l-1.953.78q.135-.855.293-1.71l.164-.957c.324-.848.324-.848.973-1.348 1.21-.375 2.285-.355 3.55-.332" style="stroke:none;fill-rule:nonzero;fill:#42302a;fill-opacity:1"/><path d="M187.89 85.156c.93.121.93.121 1.954.39l.781 1.173c.762.39.762.39 1.61.66l.859.297.656.215c-.64.468-.64.468-1.562.78-1.094-.495-1.094-.495-2.247-1.269l-1.164-.761-.886-.704Zm0 0" style="stroke:none;fill-rule:nonzero;fill:#2d2119;fill-opacity:1"/><path d="M173.828 264.453h.39q.412 1.414.805 2.832l.239.809c.675 2.445.675 2.445.129 3.781-1.258-1.887-2.168-3.977-1.832-6.273Zm0 0" style="stroke:none;fill-rule:nonzero;fill:#2e3f48;fill-opacity:1"/><path d="M220.313 225h.78c-.558 1.996-1.448 3.523-2.585 5.227l-.5.757q-.603.916-1.211 1.828l-.781-.78.543-.747c1.457-2.031 2.703-4.015 3.754-6.285" style="stroke:none;fill-rule:nonzero;fill:#d7ad94;fill-opacity:1"/><path d="m190.625 168.75 1.172.39c-.938 1.133-1.684 1.368-3.125 1.563l1.562 1.172-1.515-.121-.852-.07c-.758-.2-.758-.2-1.539-1.371l.742-.243.97-.32.96-.316c.848-.274.848-.274 1.625-.684" style="stroke:none;fill-rule:nonzero;fill:#dc724f;fill-opacity:1"/><path d="m251.563 148.828 1.171.39-1.562 3.907.781.39-1.172 1.173-.781-.391q.167-1.038.344-2.074l.191-1.168c.246-1.055.246-1.055 1.028-2.227" style="stroke:none;fill-rule:nonzero;fill:#212224;fill-opacity:1"/><path d="M171.875 126.172c-.734 2.246-.734 2.246-1.172 3.125h-1.172v-1.172l-1.172-.39h1.172v-1.172c.781-.391.781-.391 2.344-.391" style="stroke:none;fill-rule:nonzero;fill:#2b1d19;fill-opacity:1"/><path d="m154.688 73.438 1.171.39-.511.465c-.77.824-1.266 1.687-1.832 2.66-.516.785-1.04 1.567-1.563 2.344-.39-1.172-.39-1.172.055-2.113l.652-1.036.645-1.039c.601-.89.601-.89 1.382-1.671" style="stroke:none;fill-rule:nonzero;fill:#2c2d33;fill-opacity:1"/><path d="M196.875 248.047c.914.101 1.828.23 2.734.39l.391.782h1.953l-1.562 1.562c-1.727-.527-2.477-1.273-3.516-2.734" style="stroke:none;fill-rule:nonzero;fill:#d8926f;fill-opacity:1"/><path d="M250 152.734c-.074.735-.074.735-.39 1.563-.856.539-.856.539-1.954.781-1.293-.344-1.293-.344-2.344-.781 1.422-.95 2.954-1.563 4.688-1.563" style="stroke:none;fill-rule:nonzero;fill:#82baca;fill-opacity:1"/><path d="M181.25 126.563c1.266.136 1.805.218 2.66 1.195l.465.758-1.172.78-1.172-.78-.39.78v-.78h-.782Zm0 0" style="stroke:none;fill-rule:nonzero;fill:#2a1e19;fill-opacity:1"/><path d="M136.719 123.828h.39c-.191 2.676-.53 5.207-1.172 7.813h-.39c-.082-2.57.105-4.93.781-7.422Zm0 0" style="stroke:none;fill-rule:nonzero;fill:#b0c7cd;fill-opacity:1"/><path d="M142.969 128.906c.261.82.437 1.38.219 2.223-.301 1.238-.356 2.46-.438 3.734l-.102 1.496-.07 1.141h-.39c-.336-2.723-.641-5.5 0-8.203Zm0 0" style="stroke:none;fill-rule:nonzero;fill:#221714;fill-opacity:1"/><path d="M219.531 130.86c1.344 1.038 1.563 2.304 1.953 3.906h2.735v.39c-2.836.242-2.836.242-4.297-.976l-.781-.977h.78Zm0 0" style="stroke:none;fill-rule:nonzero;fill:#59504a;fill-opacity:1"/><path d="M147.266 89.844h.39l-.39 5.86h-1.172l-.39 1.171c.226-2.46.796-4.684 1.562-7.031" style="stroke:none;fill-rule:nonzero;fill:#292f32;fill-opacity:1"/><path d="m194.922 155.86 1.953.39.39 1.953h-2.343c-.438-1.465-.438-1.465 0-2.344" style="stroke:none;fill-rule:nonzero;fill:#f07c4c;fill-opacity:1"/><path d="M109.766 336.719c1.48.258 2.55.933 3.808 1.734l1.164.73.887.66v.782c-2.172-.469-3.184-1.02-4.687-2.734Zm0 0" style="stroke:none;fill-rule:nonzero;fill:#e2eaef;fill-opacity:1"/><path d="M305.078 324.61c-.61 1.644-1.75 2.476-3.125 3.515l-1.172.39c.535-1.23 1.125-1.972 2.149-2.831l.718-.618c.649-.457.649-.457 1.43-.457" style="stroke:none;fill-rule:nonzero;fill:#dfebf1;fill-opacity:1"/><path d="m204.688 244.531 1.171 1.172-1.734 1.758-.973.988c-.808.77-.808.77-1.199.77v-1.953l.734-.098c.891-.219.891-.219 1.293-1.05l.317-.805Zm0 0" style="stroke:none;fill-rule:nonzero;fill:#dd8c6c;fill-opacity:1"/><path d="M156.25 223.047h1.953l-.781 1.172h-.781V225c-.637.41-1.29.805-1.953 1.172l-1.172.781-1.172-.39c1.855-1.563 1.855-1.563 2.734-1.563v-.781h1.172Zm0 0" style="stroke:none;fill-rule:nonzero;fill:#2d3b45;fill-opacity:1"/><path d="m218.36 230.078.39 1.563-.781.39-1.137 2.086c-.535.817-1.066 1.133-1.988 1.43.605-1.309 1.363-2.442 2.195-3.613l.75-1.055Zm0 0" style="stroke:none;fill-rule:nonzero;fill:#fcede1;fill-opacity:1"/><path d="M198.945 166.668c.75.285 1.493.594 2.227.91l-.39.781-1.66-.367-.935-.203q-1.248-.286-2.484-.601l-.879-.22-.683-.171c1.496-.75 3.234-.586 4.804-.129" style="stroke:none;fill-rule:nonzero;fill:#de6f4c;fill-opacity:1"/><path d="M230.469 135.938c-.422.582-.422.582-1.172 1.171-1.227.114-1.227.114-2.613.075l-1.395-.036-1.07-.039v-.39q1.014-.31 2.027-.61l1.137-.343c1.183-.227 1.937-.145 3.086.172" style="stroke:none;fill-rule:nonzero;fill:#e5af90;fill-opacity:1"/><path d="M221.094 126.563c0 1.562 0 1.562-.39 2.343-1 .242-1 .242-1.954.39l-.39-2.343c.972-.27 1.71-.39 2.734-.39" style="stroke:none;fill-rule:nonzero;fill:#29201e;fill-opacity:1"/><path d="M161.328 90.625h2.344a62 62 0 0 1-1.953 2.344h-.781l-.391 1.172c-.39-1.172-.39-1.172.172-2.418.199-.364.402-.723.61-1.098" style="stroke:none;fill-rule:nonzero;fill:#5c5452;fill-opacity:1"/><path d="M191.797 364.063v.39q-1.416.03-2.832.047l-.809.023c-1.46.012-2.539-.039-3.781-.851 2.684-.434 4.793-.274 7.422.39" style="stroke:none;fill-rule:nonzero;fill:#4b5b65;fill-opacity:1"/><path d="M232.422 241.016h.39v3.906h-.78l-.391 1.562c-.41-1.265-.36-2.109-.047-3.394l.215-.93c.222-.754.222-.754.613-1.144" style="stroke:none;fill-rule:nonzero;fill:#24333d;fill-opacity:1"/><path d="M185.156 234.375c1.551.516 2.168 1.523 3.028 2.832.496.695 1.039 1.266 1.66 1.856l-.781.78a617 617 0 0 1-1.954-2.515l-.562-.723c-1.39-1.796-1.39-1.796-1.39-2.23" style="stroke:none;fill-rule:nonzero;fill:#d78c6d;fill-opacity:1"/><path d="M191.406 224.61c1.266 1.452 2.176 3.238 2.735 5.077-.153.891-.153.891-.391 1.563-1.66-1.82-2.344-4.227-2.344-6.64" style="stroke:none;fill-rule:nonzero;fill:#e59670;fill-opacity:1"/><path d="M155.86 120.703h.78l-.78 5.86h-.391v-1.954h-.781c.238-1.39.617-2.609 1.171-3.906" style="stroke:none;fill-rule:nonzero;fill:#4d382f;fill-opacity:1"/><path d="M143.75 97.656c.605.653.605.653 1.172 1.563-.055 1.008-.055 1.008-.317 2.05l-.253 1.055-.211.801h-.391l-.172-.902c-.203-1.082-.203-1.082-.61-2.223.368-1.246.368-1.246.782-2.344" style="stroke:none;fill-rule:nonzero;fill:#a8c4cc;fill-opacity:1"/><path d="M194.531 253.516q-.755.784-1.515 1.562l-.852.879c-.758.684-.758.684-1.539.684.438-1.16.867-2.082 1.563-3.125 1.015-.383 1.355-.493 2.343 0" style="stroke:none;fill-rule:nonzero;fill:#e5f0f7;fill-opacity:1"/><path d="M257.422 230.469h6.25v.39h-3.125v1.172a51 51 0 0 1-2.735-.781Zm0 0" style="stroke:none;fill-rule:nonzero;fill:#b4c9ce;fill-opacity:1"/><path d="M266.406 210.938c1.172.39 1.172.39 1.614 1.242l.386 1.054.395 1.043q.374 1.061.73 2.13l-.781.39-1.172-2.492-.66-1.399c-.512-1.187-.512-1.187-.512-1.969" style="stroke:none;fill-rule:nonzero;fill:#a5b8bf;fill-opacity:1"/><path d="M210.938 194.531v.781c-1.954 1.81-4.133 1.606-6.641 1.563v-.39l.687-.13c1.946-.394 4.102-1.824 5.953-1.824" style="stroke:none;fill-rule:nonzero;fill:#e18863;fill-opacity:1"/><path d="M168.75 83.594h7.031v1.172c-.976.855-.976.855-1.953 1.562l.39-1.562-1.097-.059-1.418-.09c-.465-.023-.933-.055-1.414-.078-.379-.055-.758-.11-1.148-.164Zm0 0" style="stroke:none;fill-rule:nonzero;fill:#584f4e;fill-opacity:1"/><path d="M219.531 363.672v.39l-.953.149-1 .242-.39.781-.782-.39a85 85 0 0 0-2.976-.219l-.836-.05q-1.026-.065-2.047-.122v-.39c6.148-.45 6.148-.45 8.984-.391" style="stroke:none;fill-rule:nonzero;fill:#adbac4;fill-opacity:1"/><path d="M138.281 151.563c1.008 1.511 1.219 2.164 1.196 3.953l-.008 1.078-.016.828-.781-.39c-.555-1.774-.426-3.63-.39-5.47" style="stroke:none;fill-rule:nonzero;fill:#393939;fill-opacity:1"/><path d="m235.938 128.516 1.171.39c0 .828 0 .828-.39 1.953-.977.883-2.031 1.618-3.125 2.344l.39-1.562h.782c.55-1.032.925-1.98 1.172-3.125" style="stroke:none;fill-rule:nonzero;fill:#edbea0;fill-opacity:1"/><path d="M198.438 251.172h3.125l-.782.781 3.516.39v.391h-5.078v-1.172Zm0 0" style="stroke:none;fill-rule:nonzero;fill:#ecf4f8;fill-opacity:1"/><path d="M273.828 225a62 62 0 0 1 2.344 1.953v.781c-1.059.528-1.957.418-3.125.391l1.172-1.172-.781-1.562Zm0 0" style="stroke:none;fill-rule:nonzero;fill:#383b3d;fill-opacity:1"/><path d="M223.438 218.75c.39.781.39.781.027 1.941l-.54 1.38-.534 1.378c-.516 1.16-.516 1.16-1.297 1.942 0-1.762.418-2.625 1.172-4.2l.66-1.386Zm0 0" style="stroke:none;fill-rule:nonzero;fill:#edcfb7;fill-opacity:1"/><path d="m226.195 212.867 1.149.024-.707.562c-1.164 1.363-1.547 2.813-2.028 4.516-.507-1.688-.28-2.961 0-4.688.391-.39.391-.39 1.586-.414" style="stroke:none;fill-rule:nonzero;fill:#fbf4ea;fill-opacity:1"/><path d="m154.297 151.172 1.953.39v3.125l-1.172.391v-.781h.781l-.78-1.172-.782.39Zm0 0" style="stroke:none;fill-rule:nonzero;fill:#9ec3c9;fill-opacity:1"/><path d="M243.75 141.797h.39v2.734h.782c-.508 1.133-1.059 1.88-1.953 2.735.375-3.676.375-3.676.781-5.47" style="stroke:none;fill-rule:nonzero;fill:#e18e66;fill-opacity:1"/><path d="m174.61 128.125-.782 3.906h-.39l-.391-2.734-1.563.39-.39-.78c2.195-1.22 2.195-1.22 3.515-.782" style="stroke:none;fill-rule:nonzero;fill:#d9dfdc;fill-opacity:1"/><path d="M253.906 143.75c.39 1.172.39 1.172-.054 2.125l-.653 1.047-.644 1.055c-.602.851-.602.851-1.383 1.242.258-1.395.844-2.414 1.586-3.614l.648-1.054Zm0 0" style="stroke:none;fill-rule:nonzero;fill:#efd3bc;fill-opacity:1"/><path d="m188.672 257.813.781.39c-.96 2.211-.96 2.211-2.027 2.883l-.707.242v1.172h-.781c.222-1.121.335-1.508 1.171-2.344q.793-1.165 1.563-2.344" style="stroke:none;fill-rule:nonzero;fill:#e5eff6;fill-opacity:1"/><path d="m102.344 248.047 1.172.39-3.516 3.516c.16-1.887.96-2.668 2.344-3.906" style="stroke:none;fill-rule:nonzero;fill:#0f2a37;fill-opacity:1"/><path d="M224.219 208.203H225l.172.879.219 1.074.148.856c.215.86.215.86 1.414 1.488-.652.016-1.3.016-1.953 0-.648-.648-.531-1.477-.61-2.367l-.1-1.09Zm0 0" style="stroke:none;fill-rule:nonzero;fill:#2f2520;fill-opacity:1"/><path d="M264.453 154.688c.602.949.793 1.433.688 2.57l-.25 1.043-.239 1.054-.199.801h-.781c.223-1.832.46-3.648.781-5.469" style="stroke:none;fill-rule:nonzero;fill:#9eb4ba;fill-opacity:1"/><path d="M243.75 151.172c.492 1.473.145 2.098-.39 3.516l-1.563-.391v-.781l-.781-.391.707-.098c1.09-.37 1.414-.906 2.027-1.855" style="stroke:none;fill-rule:nonzero;fill:#edd2ba;fill-opacity:1"/><path d="M247.266 148.828c.93.121.93.121 1.953.39l.781 1.173-.734-.243-.828-.148-.782.781c-.828-.148-.828-.148-1.562-.39Zm0 0" style="stroke:none;fill-rule:nonzero;fill:#99d0d4;fill-opacity:1"/><path d="m214.453 130.078 1.172.39-2.344 3.516c-.39-1.562-.39-1.562.367-2.832Zm0 0" style="stroke:none;fill-rule:nonzero;fill:#453629;fill-opacity:1"/><path d="M223.438 125.39c-1.461 1.462-3.118 1.442-5.079 1.563 1.59-1.293 3.024-2.324 5.078-1.562" style="stroke:none;fill-rule:nonzero;fill:#4a3429;fill-opacity:1"/><path d="M140.625 110.547c.465 1.34.313 2.101-.172 3.418l-.34.945-.27.715-.78-.39c.183-1.868.484-3.141 1.562-4.688" style="stroke:none;fill-rule:nonzero;fill:#b1cbd2;fill-opacity:1"/><path d="M196.875 335.938h1.172l.148.757.243.805.78.39v.782h2.735v.39c-2.762.282-2.762.282-3.766-.496-1.312-1.554-1.312-1.554-1.312-2.628" style="stroke:none;fill-rule:nonzero;fill:#8cb8c5;fill-opacity:1"/><path d="m322.656 305.469.781.39c-.921 1.309-1.98 2.403-3.125 3.516 0-1.402.258-1.605 1.172-2.613l.66-.735Zm0 0" style="stroke:none;fill-rule:nonzero;fill:#d9e9ef;fill-opacity:1"/><path d="m175 262.11.781.39-.386.664c-.442 1.004-.477 1.668-.442 2.754l.02.945.027.715c-.79-1.187-.906-1.637-1.023-3.004l-.09-.957-.059-.726Zm0 0" style="stroke:none;fill-rule:nonzero;fill:#dfebf1;fill-opacity:1"/><path d="m204.688 246.484.39 1.172-.586.485-.758.64-.754.63c-.68.558-.68.558-1.027 1.37l-1.562-.39.64-.559.848-.734.84-.73c.68-.606 1.332-1.231 1.969-1.884" style="stroke:none;fill-rule:nonzero;fill:#fdeadb;fill-opacity:1"/><path d="M285.156 241.797c1.98.254 3.68 1.117 5.469 1.953-1.066.418-1.48.422-2.57 0l-1.043-.562-1.055-.56-.8-.44Zm0 0" style="stroke:none;fill-rule:nonzero;fill:#a9c6d0;fill-opacity:1"/><path d="M184.375 210.938c1.281 1.09 1.957 2.433 2.734 3.906v.781c-1.172-.39-1.172-.39-1.629-1.172l-.398-.953-.406-.95c-.301-.831-.301-.831-.301-1.613" style="stroke:none;fill-rule:nonzero;fill:#e2946d;fill-opacity:1"/><path d="m210.547 172.266.781.39-3.125 3.906-.39-1.171c.558-.797.558-.797 1.343-1.637l.778-.848Zm0 0" style="stroke:none;fill-rule:nonzero;fill:#e68969;fill-opacity:1"/><path d="m155.078 152.734.781.391v1.172h-.78v.781c-.954-.148-.954-.148-1.954-.39l-.39-.782.952-.367c.958-.32.958-.32 1.391-.805" style="stroke:none;fill-rule:nonzero;fill:#78acb6;fill-opacity:1"/><path d="m247.656 128.516 1.953 1.562-2.734 1.172c.344-1.855.344-1.855.781-2.734" style="stroke:none;fill-rule:nonzero;fill:#eab395;fill-opacity:1"/><path d="m166.895 128.86.683.437-1.172 1.562c-1.515-.683-1.515-.683-1.953-1.562 1.348-.867 1.348-.867 2.442-.438" style="stroke:none;fill-rule:nonzero;fill:#3d2a22;fill-opacity:1"/><path d="m226.953 91.406 4.297.39v.782h-4.687Zm0 0" style="stroke:none;fill-rule:nonzero;fill:#564c4b;fill-opacity:1"/><path d="M280.469 342.578v1.172h-1.563v1.172l-1.172.39v-.78l-.78-.391c2.636-1.563 2.636-1.563 3.515-1.563" style="stroke:none;fill-rule:nonzero;fill:#cdd8da;fill-opacity:1"/><path d="M230.078 250.781h.39c.032.563.055 1.121.075 1.684l.039.95c-.137 1.07-.46 1.386-1.285 2.054-.07-1.778 0-3.078.781-4.688" style="stroke:none;fill-rule:nonzero;fill:#192630;fill-opacity:1"/><path d="M183.594 232.813c2.265 2.203 2.265 2.203 3.125 3.515v.781c-.727-.097-.727-.097-1.563-.39-.496-.696-.496-.696-.879-1.54l-.398-.84c-.285-.745-.285-.745-.285-1.526" style="stroke:none;fill-rule:nonzero;fill:#fce5d8;fill-opacity:1"/><path d="M140.625 228.906h6.25c-1 1.004-1.75.992-3.125 1.172v-.39l-3.125-.391Zm0 0" style="stroke:none;fill-rule:nonzero;fill:#b5ccd4;fill-opacity:1"/><path d="M202.344 205.078c-3.676 1.723-3.676 1.723-5.469 1.953v-.781a111 111 0 0 1 1.855-.805l1.043-.453c1.067-.324 1.543-.297 2.57.086" style="stroke:none;fill-rule:nonzero;fill:#e18963;fill-opacity:1"/><path d="m214.063 192.188.78.39c-.39 1.172-.39 1.172-1.562 1.953-1.246.047-1.246.047-2.344 0 1.024-.828 2.032-1.613 3.125-2.344" style="stroke:none;fill-rule:nonzero;fill:#e18760;fill-opacity:1"/><path d="M237.5 165.625h.781c-.566 1.48-1.23 2.887-1.953 4.297h-.781c.476-1.574 1-2.945 1.953-4.297" style="stroke:none;fill-rule:nonzero;fill:#3a2b24;fill-opacity:1"/><path d="M243.75 70.703c2.258 1.684 2.258 1.684 2.688 3.05l.046.856-.78.391q-.492-.744-.977-1.488l-.551-.84c-.426-.797-.426-.797-.426-1.969" style="stroke:none;fill-rule:nonzero;fill:#a7bac0;fill-opacity:1"/><path d="M166.797 63.672v1.562l-.93-.046c-1.086-.067-1.086-.067-1.804.828l-1.172-.782c2.586-1.562 2.586-1.562 3.906-1.562" style="stroke:none;fill-rule:nonzero;fill:#46494a;fill-opacity:1"/><path d="M232.031 244.922h.781l.391 1.953h-1.172l-.781 1.953h-.39c-.141-1.656.18-2.57 1.171-3.906" style="stroke:none;fill-rule:nonzero;fill:#132430;fill-opacity:1"/><path d="m151.953 226.953.781.39c-1.41 1.286-2.394 1.778-4.297 1.954v-.781q.85-.41 1.711-.805l.961-.453Zm0 0" style="stroke:none;fill-rule:nonzero;fill:#192830;fill-opacity:1"/><path d="m206.715 154.445.707.243.39 2.734-1.562.781.39-2.344-1.952-.78c1.171-.782 1.171-.782 2.027-.634" style="stroke:none;fill-rule:nonzero;fill:#fac09a;fill-opacity:1"/><path d="M194.14 155.469c.57 1.035.782 1.52.782 2.734l2.344.39v.391c-1.32-.12-1.32-.12-2.735-.39-.781-1.172-.781-1.172-.633-2.223Zm0 0" style="stroke:none;fill-rule:nonzero;fill:#e69269;fill-opacity:1"/><path d="m203.125 156.25 1.172.39v1.954l.781.39-1.953-.39a33 33 0 0 1-.39-1.953Zm0 0" style="stroke:none;fill-rule:nonzero;fill:#e8906b;fill-opacity:1"/><path d="M136.719 147.656c.781.512.781.512 1.562 1.563.14 1.441.09 2.851 0 4.297-.707-1.25-.984-2.395-1.219-3.809l-.199-1.164Zm0 0" style="stroke:none;fill-rule:nonzero;fill:#3f4345;fill-opacity:1"/><path d="m245.313 147.656 1.562.781c-.39 1.172-.39 1.172-1.195 1.637l-.758.317c-.242-.93-.242-.93-.39-1.953Zm0 0" style="stroke:none;fill-rule:nonzero;fill:#f8d5b9;fill-opacity:1"/><path d="M233.594 217.188c1.277.218 1.886.585 2.734 1.562h-1.562l-.391 1.172Zm0 0" style="stroke:none;fill-rule:nonzero;fill:#283740;fill-opacity:1"/><path d="M190.234 173.828c1.668.617 2.446 1.762 3.516 3.125-1.172 0-1.172 0-1.797-.586l-.621-.758-.625-.754c-.473-.636-.473-.636-.473-1.027" style="stroke:none;fill-rule:nonzero;fill:#e78a6a;fill-opacity:1"/><path d="M159.375 153.906v2.344l-2.344-.781c1.465-1.563 1.465-1.563 2.344-1.563" style="stroke:none;fill-rule:nonzero;fill:#352920;fill-opacity:1"/><path d="m153.516 150.781 1.172.781-.391 2.344-2.734-.781.757-.293c.88-.418.88-.418 1.098-1.316Zm0 0" style="stroke:none;fill-rule:nonzero;fill:#7acedd;fill-opacity:1"/><path d="m234.375 130.469.781.39-.39.782h-.782l-.78 1.953-.782-.781c.047-.782.047-.782.39-1.563.758-.512.758-.512 1.563-.781" style="stroke:none;fill-rule:nonzero;fill:#cc8c69;fill-opacity:1"/><path d="M167.188 131.25h1.171l1.563 3.125c-.781 0-.781 0-1.367-.562l-.586-.61-.781-.39Zm0 0" style="stroke:none;fill-rule:nonzero;fill:#d59c82;fill-opacity:1"/><path d="M182.031 128.516h.781v3.515l-.78.39c-.438-3.026-.438-3.026 0-3.905" style="stroke:none;fill-rule:nonzero;fill:#49413d;fill-opacity:1"/><path d="m225.781 127.734 1.172.782c.16 1.058.05 2.047 0 3.125h-.781Zm0 0" style="stroke:none;fill-rule:nonzero;fill:#342c2a;fill-opacity:1"/><path d="M76.953 94.14c.27.708.27.708.39 1.563-.511.684-.511.684-1.171 1.172h-.781l-.391.781c.188-1.683.684-2.41 1.953-3.515" style="stroke:none;fill-rule:nonzero;fill:#9bbac0;fill-opacity:1"/><path d="m295.313 332.031 1.171.39-2.734 2.345-.781-.391Zm0 0" style="stroke:none;fill-rule:nonzero;fill:#dbe9ef;fill-opacity:1"/><path d="M233.594 234.375c.781 1.172.781 1.172.633 2.418l-.243 1.098h-.78l-.392 1.172q.084-.95.172-1.907c.032-.351.063-.703.094-1.07.125-.93.125-.93.516-1.711" style="stroke:none;fill-rule:nonzero;fill:#455560;fill-opacity:1"/><path d="M182.422 230.469h.781v.781l1.172.39c.488.735.488.735.781 1.563l-.39 1.172-1.172-1.734-.66-.973c-.512-.809-.512-.809-.512-1.2" style="stroke:none;fill-rule:nonzero;fill:#de8d6d;fill-opacity:1"/><path d="m150 151.563.633.562c1.097.719 1.984.852 3.273 1-.39.781-.39.781-1.074 1.148-.879.024-.879.024-1.953-.878-.879-1.051-.879-1.051-.879-1.833" style="stroke:none;fill-rule:nonzero;fill:#9edde9;fill-opacity:1"/><path d="M168.75 129.688v1.562c-.93.074-.93.074-1.953 0l-.781-1.172c1.172-.39 1.172-.39 2.734-.39" style="stroke:none;fill-rule:nonzero;fill:#321e19;fill-opacity:1"/><path d="m163.672 116.797.781.39-.39 1.954-2.344.39c.504-1.125 1.039-1.902 1.953-2.734" style="stroke:none;fill-rule:nonzero;fill:#5f4634;fill-opacity:1"/><path d="m207.422 242.188 1.172.39q-.962 1.184-1.953 2.344h-.391v-1.953h1.172Zm0 0" style="stroke:none;fill-rule:nonzero;fill:#e29272;fill-opacity:1"/><path d="m265.234 228.516 3.125.39c-1.293.864-1.695.867-3.199.828l-1.066-.02-.813-.026v-.391l1.953-.39Zm0 0" style="stroke:none;fill-rule:nonzero;fill:#1c2125;fill-opacity:1"/><path d="M263.281 160.156h.39l.392 3.125-1.172.39-.391.782c.344-2.976.344-2.976.781-4.297" style="stroke:none;fill-rule:nonzero;fill:#96a9b0;fill-opacity:1"/><path d="m153.125 149.219-.707.293c-.984.562-1.402 1.117-2.027 2.05l-.782 1.172c-.097-1.097-.097-1.097 0-2.343 1.075-1.196 1.953-1.301 3.516-1.172" style="stroke:none;fill-rule:nonzero;fill:#89a8ac;fill-opacity:1"/><path d="m151.172 78.516.781 1.171c-1.465 2.297-1.465 2.297-2.344 2.735.434-1.363.883-2.649 1.563-3.906" style="stroke:none;fill-rule:nonzero;fill:#383d42;fill-opacity:1"/><path d="M173.047 76.172c-.438 1.308-.684 1.48-1.781 2.223l-.758.515-.586.387v-1.172h.781v-.781c1.352-1.172 1.352-1.172 2.344-1.172" style="stroke:none;fill-rule:nonzero;fill:#5f5654;fill-opacity:1"/><path d="m251.563 355.86.78.39-.39 1.172h-.781l-.39.781-1.173-.781c.782-1.172.782-1.172 1.953-1.563" style="stroke:none;fill-rule:nonzero;fill:#cbd9dc;fill-opacity:1"/><path d="m317.969 310.938.39 1.171-2.343 1.954c.21-1.485.859-2.137 1.953-3.125" style="stroke:none;fill-rule:nonzero;fill:#d9eaef;fill-opacity:1"/><path d="M202.734 261.328c-.922.82-1.386 1.16-2.636 1.246l-.88-.074v-.781c1.157-.578 2.243-.414 3.516-.39" style="stroke:none;fill-rule:nonzero;fill:#aaced5;fill-opacity:1"/><path d="m156.25 153.125 1.563.39-.391 1.563h-1.953l.781-.39Zm0 0" style="stroke:none;fill-rule:nonzero;fill:#f0e4d8;fill-opacity:1"/><path d="M167.969 133.594c1.832 1.41 1.832 1.41 2.344 1.953v1.172c-1.125-.504-1.903-1.04-2.735-1.953Zm0 0" style="stroke:none;fill-rule:nonzero;fill:#fac19b;fill-opacity:1"/><path d="M248.438 80.86h.78l1.173 3.515h-.782c-1.172-2.195-1.172-2.195-1.172-3.516" style="stroke:none;fill-rule:nonzero;fill:#454a4c;fill-opacity:1"/><path d="m170.313 62.89-.782 1.172-2.734-.39c1.191-1.192 1.973-1.262 3.516-.781" style="stroke:none;fill-rule:nonzero;fill:#515759;fill-opacity:1"/><path d="m250 357.422-.39.781c-1.036.23-2.067.29-3.126.39 1.141-1.25 1.805-1.741 3.516-1.171" style="stroke:none;fill-rule:nonzero;fill:#e1edf2;fill-opacity:1"/><path d="M128.516 348.047c1.547.219 2.605.707 3.906 1.562-1.172.391-1.172.391-1.977.024l-.757-.414h-.782Zm0 0" style="stroke:none;fill-rule:nonzero;fill:#e0ecf3;fill-opacity:1"/><path d="M307.813 275h.78l.391 3.125h-.78c-.528-1.059-.415-1.957-.392-3.125" style="stroke:none;fill-rule:nonzero;fill:#233f4a;fill-opacity:1"/><path d="m196.875 248.047 2.734.39-.39 1.563c-1.235-.535-1.559-.777-2.344-1.953" style="stroke:none;fill-rule:nonzero;fill:#df9976;fill-opacity:1"/><path d="m210.547 240.234.39 1.172-.757.317c-.934.422-.934.422-1.196 1.636l-.78-.39Zm0 0" style="stroke:none;fill-rule:nonzero;fill:#fce6d8;fill-opacity:1"/><path d="m216.016 232.422.39.781-1.562 2.344-1.172-.781Zm0 0" style="stroke:none;fill-rule:nonzero;fill:#d09b7f;fill-opacity:1"/><path d="m269.531 227.734 3.125.391c-.781.781-.781.781-1.539.86l-2.367-.079Zm0 0" style="stroke:none;fill-rule:nonzero;fill:#2a282c;fill-opacity:1"/><path d="m224.219 211.328 1.562 1.563-.781.39c-.18.742-.18.742-.242 1.586l-.149 1.54h-.39Zm0 0" style="stroke:none;fill-rule:nonzero;fill:#edd5bf;fill-opacity:1"/><path d="M221.875 186.328c0 1.172 0 1.172-.781 2.027l-.781.708-.782-.782Zm0 0" style="stroke:none;fill-rule:nonzero;fill:#d68e6b;fill-opacity:1"/><path d="M242.969 143.75h.39v3.906l-.78.39a85 85 0 0 1-.243-1.706l-.14-.965-.008-.844Zm0 0" style="stroke:none;fill-rule:nonzero;fill:#f8c29b;fill-opacity:1"/><path d="M185.938 133.594h1.171c-.218.758-.218.758-.78 1.562-1.415.293-1.415.293-2.735.39l.39-.78h1.953Zm0 0" style="stroke:none;fill-rule:nonzero;fill:#fdf2e6;fill-opacity:1"/><path d="m246.484 130.469.782 1.562-1.563 1.563-.39-1.172c.562-1.05.562-1.05 1.171-1.953" style="stroke:none;fill-rule:nonzero;fill:#da8c69;fill-opacity:1"/><path d="m276.172 344.531.781.39-.39 1.173c-.758.316-.758.316-1.563.39l-.781-.78c.93-.61.93-.61 1.953-1.173" style="stroke:none;fill-rule:nonzero;fill:#d0d8de;fill-opacity:1"/><path d="M205.469 336.328h.39l.391 2.735-1.562 1.171c.18-1.355.347-2.605.78-3.906" style="stroke:none;fill-rule:nonzero;fill:#3f4e57;fill-opacity:1"/><path d="M203.125 337.89v1.173c-1.004.632-1.437.796-2.637.632l-.879-.242v-.39l1.32-.368c1.333-.343 1.333-.343 2.196-.804" style="stroke:none;fill-rule:nonzero;fill:#daeff4;fill-opacity:1"/><path d="M116.797 241.406c-2.195 1.172-2.195 1.172-3.516 1.172l.39-1.172c1.286-.312 1.84-.43 3.126 0" style="stroke:none;fill-rule:nonzero;fill:#adcbd6;fill-opacity:1"/><path d="M225.781 181.64h.781c-.542 1.317-1.164 1.95-2.343 2.735l-.39-1.172H225v-.781h.781Zm0 0" style="stroke:none;fill-rule:nonzero;fill:#dec2ad;fill-opacity:1"/><path d="M249.61 155.078c-.942.942-1.426 1.047-2.735 1.172-.902-.367-.902-.367-1.562-.781 2.976-.828 2.976-.828 4.296-.39" style="stroke:none;fill-rule:nonzero;fill:#172024;fill-opacity:1"/><path d="M243.75 152.344c1.172 1.465 1.172 1.465 1.172 2.344l-1.953-.391Zm0 0" style="stroke:none;fill-rule:nonzero;fill:#f0eee2;fill-opacity:1"/><path d="m216.406 128.125.781 1.172-1.171 1.172-1.172-.39Zm0 0" style="stroke:none;fill-rule:nonzero;fill:#261d14;fill-opacity:1"/><path d="M254.297 126.563c1.121.222 1.508.335 2.344 1.171l-1.172 1.172c-1.172-1.465-1.172-1.465-1.172-2.344" style="stroke:none;fill-rule:nonzero;fill:#32221a;fill-opacity:1"/><path d="M157.422 115.625h.781l-1.172 3.516h-.39c-.078-1.414.054-2.29.78-3.516" style="stroke:none;fill-rule:nonzero;fill:#47352a;fill-opacity:1"/><path d="M159.766 111.328h.39c.098 2.195.098 2.195-.781 3.516h-.781Zm0 0" style="stroke:none;fill-rule:nonzero;fill:#dabba4;fill-opacity:1"/><path d="M161.328 107.813c.375 1.5.36 2.078 0 3.515h-1.172Zm0 0" style="stroke:none;fill-rule:nonzero;fill:#e0c0a8;fill-opacity:1"/><path d="M190.625 87.11c2.246.292 2.246.292 3.125 1.171-1.02.364-1.422.45-2.441.024l-.684-.414Zm0 0" style="stroke:none;fill-rule:nonzero;fill:#352a23;fill-opacity:1"/><path d="m185.156 82.813-.39 1.171c-1 .465-1 .465-1.953.782l-.782-.782c1.805-1.171 1.805-1.171 3.125-1.171" style="stroke:none;fill-rule:nonzero;fill:#dbc2a9;fill-opacity:1"/></svg>